<svg xmlns="http://www.w3.org/2000/svg" width="512" height="512" xml:space="preserve"><g transform="translate(256 256) scale(28.44422)" clip-path="url(#a)"><clipPath id="a"><rect x="-9" y="-8" rx="0" ry="0" width="18" height="16"/></clipPath><path style="stroke:none;stroke-width:1;stroke-dasharray:none;stroke-linecap:butt;stroke-dashoffset:0;stroke-linejoin:miter;stroke-miterlimit:4;fill:#f1892b;fill-rule:evenodd;opacity:1" transform="translate(-9 -8)" d="M13.579 6.927H6.868l2.131-3.72 1.661 2.9h2.449L9.916.533a1.056 1.056 0 0 0-1.841.012l-4.27 7.453c1.12 1.953 2.237 3.907 3.356 5.86H2.898l1.662-2.902L3.336 8.82.143 14.393A1.073 1.073 0 0 0 1.06 16h8.55l3.358-5.864 2.132 3.721h-3.324L10.55 16h6.389a1.075 1.075 0 0 0 .88-1.671l-4.24-7.402Z"/></g></svg>