<svg width="140" height="140" fill="none" xmlns="http://www.w3.org/2000/svg"><path d="M48.258 98.055c-.658-.988-1.482-2.086-1.811-2.526l-.604-.768h48.204l-1.538 2.086c-.823 1.153-1.921 3.02-3.403 6.094h-4.118v16.416H54.902v-16.416h-4.118l-.714-1.592c-.33-.824-1.153-2.306-1.812-3.294Z" fill="#F1892B"/><path fill-rule="evenodd" clip-rule="evenodd" d="M11.2 45.514h117.6V86.58H11.2V45.514Z" fill="#F1892B"/><path d="M0 102.996v-8.235h9.278l-1.537 2.086c-.823 1.153-1.921 3.02-3.404 6.094H0v.055Zm133.027-4.941a59.573 59.573 0 0 0-1.812-2.526l-.604-.768H140v8.235h-4.393l-.713-1.592c-.385-.879-1.263-2.36-1.867-3.35Z" fill="#F1892B"/><path fill-rule="evenodd" clip-rule="evenodd" d="M28.165 95.145c2.416.055 3.569.22 4.941.714.988.33 2.69 1.263 3.788 1.976 1.099.769 2.58 2.087 3.24 2.91.658.824 1.537 2.196 1.976 3.02.384.823.988 2.196 1.263 3.019.384 1.098.494 2.306.494 4.502 0 2.471-.11 3.404-.659 5.051-.33 1.098-1.208 2.91-1.921 3.953-.66 1.043-1.922 2.471-2.745 3.239-.824.714-2.252 1.702-3.24 2.196-.988.495-2.745 1.208-3.898 1.483-1.153.329-2.855.549-3.733.549-.878 0-2.58-.22-3.788-.549-1.153-.33-2.91-.988-3.898-1.483-.989-.494-2.416-1.482-3.24-2.196-.768-.713-2.031-2.141-2.745-3.239-.713-1.043-1.592-2.855-1.921-3.953-.55-1.647-.66-2.58-.66-5.051 0-2.196.11-3.404.495-4.502.275-.823.824-2.086 1.153-2.855a30.217 30.217 0 0 1 1.812-2.855c.604-.768 1.866-2.031 2.745-2.69.878-.659 2.25-1.482 3.02-1.866.768-.33 2.03-.824 2.854-1.044 1.098-.329 2.416-.384 4.667-.329Zm-3.953 13.945c-.22.33-.494 1.098-.549 1.702-.11.659 0 1.428.22 2.031.22.495.878 1.318 1.427 1.757.824.659 1.318.824 2.36.824.88 0 1.538-.165 2.087-.549.384-.33.988-.879 1.263-1.208.274-.329.549-1.208.604-1.867.11-.878 0-1.482-.33-2.196-.274-.494-.933-1.208-1.427-1.592-.659-.384-1.318-.604-2.196-.604-.714 0-1.592.22-2.086.549-.55.275-1.153.824-1.373 1.153Zm88.722-13.945c2.415.055 3.568.22 4.941.714.988.33 2.69 1.263 3.788 1.976 1.098.769 2.58 2.087 3.239 2.91.659.824 1.537 2.196 1.977 3.02.384.823.988 2.196 1.262 3.019.385 1.098.495 2.306.495 4.502 0 2.471-.11 3.404-.659 5.051-.33 1.098-1.208 2.91-1.922 3.953-.659 1.043-1.921 2.471-2.745 3.239-.823.714-2.251 1.702-3.239 2.196-.988.495-2.745 1.208-3.898 1.483-1.153.329-2.855.549-3.734.549-.878 0-2.58-.22-3.788-.549-1.153-.33-2.91-.988-3.898-1.483-.988-.494-2.416-1.482-3.239-2.196-.769-.713-2.031-2.141-2.745-3.239-.714-1.043-1.592-2.855-1.922-3.953-.549-1.647-.658-2.58-.658-5.051 0-2.196.11-3.404.494-4.502.274-.823.823-2.086 1.152-2.855a30.22 30.22 0 0 1 1.812-2.855c.604-.768 1.867-2.031 2.745-2.69a23.89 23.89 0 0 1 3.02-1.866c.769-.33 2.031-.824 2.855-1.044 1.098-.329 2.416-.384 4.667-.329Zm-3.953 13.945c-.22.33-.494 1.098-.549 1.702-.11.659 0 1.428.219 2.031.22.495.879 1.318 1.428 1.757.823.659 1.317.824 2.36.824.879 0 1.538-.165 2.087-.549.384-.33.988-.879 1.262-1.208.275-.329.549-1.208.604-1.867.11-.878 0-1.482-.329-2.196-.275-.494-.933-1.208-1.427-1.592-.659-.384-1.318-.604-2.197-.604-.713 0-1.592.22-2.086.549-.549.275-1.153.824-1.372 1.153Z" fill="#F1892B"/><path d="M62.588 14.165c1.098-.55 2.965-1.263 4.118-1.538a29.405 29.405 0 0 1 3.129-.549c.549 0 2.086.22 3.349.495 1.263.274 3.24.988 4.282 1.537 1.098.549 2.69 1.647 3.569 2.525.878.824 1.812 1.922 2.141 2.416.494.823.55.823 1.373.604a30.79 30.79 0 0 1 2.8-.44c1.372-.11 2.525-.054 4.117.275 1.208.275 2.965.879 3.953 1.373.989.494 2.526 1.592 3.404 2.47.879.879 1.977 2.087 2.306 2.745.549.934.824 1.153 1.482 1.153.44 0 1.593.165 2.526.385.933.22 2.361.713 3.129 1.098.769.384 2.032 1.153 2.691 1.702.658.549 1.756 1.592 2.36 2.36.604.769 1.428 1.977 1.812 2.745.384.77.879 2.032 1.098 2.855.165.604.33 1.373.384 2.306H23.333c0-.549.22-1.537.384-2.306.22-.823.714-2.086 1.098-2.854.385-.714 1.208-1.977 1.812-2.746.604-.713 1.702-1.811 2.36-2.36.66-.55 1.923-1.318 2.691-1.702.769-.385 2.196-.879 3.13-1.098.933-.22 2.086-.385 2.525-.385.659 0 .933-.164 1.482-1.153.33-.659 1.428-1.866 2.306-2.745.879-.878 2.416-1.976 3.404-2.47.988-.494 2.745-1.098 3.953-1.373 1.592-.33 2.69-.44 4.118-.274 1.043.054 2.306.274 2.8.439.823.22.933.22 1.427-.604.275-.44 1.263-1.537 2.141-2.416.989-.768 2.526-1.921 3.624-2.47Z" fill="#F1892B"/></svg>