<svg width="140" height="140" fill="none" xmlns="http://www.w3.org/2000/svg"><path d="M108.182 76.375h-35V121h35V76.375Zm-41.364 0h-35V121h35V76.375Z" fill="#F1892B"/><path d="M70 19a70.016 70.016 0 0 0-49.474 20.562A70.268 70.268 0 0 0 0 89.125v28.687a3.194 3.194 0 0 0 .931 2.255 3.179 3.179 0 0 0 2.25.933h22.274V73.187a3.191 3.191 0 0 1 1.963-2.945c.387-.16.8-.242 1.218-.242h82.728a3.177 3.177 0 0 1 3.181 3.188V121h22.273a3.18 3.18 0 0 0 3.182-3.188V89.125a70.268 70.268 0 0 0-20.526-49.563A70.016 70.016 0 0 0 70 19ZM54.09 38.125h31.82c.843 0 1.652.336 2.249.934a3.19 3.19 0 0 1-2.25 5.441H54.091a3.179 3.179 0 0 1-2.25-.934 3.19 3.19 0 0 1 2.25-5.441ZM92.274 57.25H47.727a3.179 3.179 0 0 1-2.25-.934 3.19 3.19 0 0 1 2.25-5.441h44.546c.844 0 1.653.336 2.25.934a3.19 3.19 0 0 1-2.25 5.441Z" fill="#F1892B"/></svg>