<svg width="56" height="50" fill="none" xmlns="http://www.w3.org/2000/svg"><path fill-rule="evenodd" clip-rule="evenodd" d="M21.037 4.037a7.606 7.606 0 0 1 2.827-2.852c3.64-2.099 8.322-.857 10.426 2.77l20.03 34.539a7.562 7.562 0 0 1 1.189 4.072c0 4.194-3.42 7.599-7.633 7.599l-40.378-.001a7.653 7.653 0 0 1-3.822-1.028c-3.636-2.097-4.88-6.748-2.78-10.37l20.14-34.729ZM37.78 30.53l5.42 9.346h-8.45l-3.121 5.381h16.246a2.697 2.697 0 0 0 2.702-2.69 2.67 2.67 0 0 0-.462-1.506L39.334 22.47H22.267l5.42-9.346 4.225 7.286h6.227l-8.119-14a2.703 2.703 0 0 0-4.684.03L14.48 25.16c2.845 4.904 5.688 9.81 8.533 14.715h-10.84l4.225-7.286-3.113-5.37-8.12 14.001a2.678 2.678 0 0 0 .982 3.669 2.71 2.71 0 0 0 1.351.367H29.24l8.541-14.727Z" fill="#F1892B"/></svg>