<?xml version="1.0" encoding="utf-8"?><svg viewBox="0 0 576 512" xmlns="http://www.w3.org/2000/svg" xmlns:xlink="http://www.w3.org/1999/xlink"><style>:root>svg{display:none}:root>svg:target{display:block}</style><svg viewBox="0 0 12 6" id="arrow-bottom" xmlns="http://www.w3.org/2000/svg"><path d="M11.787 1.078 6.46 5.818A.825.825 0 0 1 5.986 6a.683.683 0 0 1-.446-.181L.213 1.079A.588.588 0 0 1 .185.197c.25-.26.67-.26.948-.026l4.88 4.352L10.868.172a.702.702 0 0 1 .948.026.588.588 0 0 1-.028.88Z"/></svg><svg viewBox="0 0 18 30" id="arrow-left" xmlns="http://www.w3.org/2000/svg"><path d="M16 30 0 15 16 0l2 1.875L4 15l14 13.125L16 30Z"/></svg><svg fill="none" viewBox="0 0 11 6" id="arrow-select" xmlns="http://www.w3.org/2000/svg"><path d="M0 .667 5.5 6 11 .667 10.313 0 5.5 4.667.687 0 0 .667Z" fill="#7F8082"/></svg><svg viewBox="0 0 50 50" id="arrow-slider" xmlns="http://www.w3.org/2000/svg"><rect width="50" height="50" rx="25" fill="#F9F7F4"/><path d="m21.059 38.355 12.189-12.293c.266-.322.466-.708.466-1.094 0-.386-.2-.773-.466-1.03l-12.19-12.293C20.46 11 19.394 11 18.795 11.58c-.666.579-.666 1.544-.067 2.188l11.19 11.263-11.19 11.2a1.5 1.5 0 0 0 .067 2.188c.6.579 1.665.579 2.265-.065Z"/><path fill-rule="evenodd" clip-rule="evenodd" d="M20.072 37.615c-.095.102-.255.097-.336.02l-.023-.023-.024-.021a.387.387 0 0 1-.117-.287.397.397 0 0 1 .097-.288l.016-.014 11.957-11.968L19.704 13.02a.511.511 0 0 1-.133-.347.346.346 0 0 1 .118-.263l.024-.021.023-.022c.08-.078.24-.083.336.019l.013.014 12.22 12.324a.462.462 0 0 1 .092.13.292.292 0 0 1 .032.115c0 .042-.032.175-.184.37L20.085 37.6l-.013.014Zm1.958 1.496c-1.098 1.16-3.038 1.17-4.155.116a2.57 2.57 0 0 1-.099-3.772L28.193 25.03 17.754 14.523l-.013-.014c-.974-1.046-1.046-2.687.134-3.736 1.118-1.053 3.057-1.045 4.155.116L34.2 23.163c.45.44.8 1.093.8 1.805 0 .728-.365 1.353-.72 1.782l-.034.041-12.216 12.32Z"/></svg><svg viewBox="0 0 512 512" id="ban" xmlns="http://www.w3.org/2000/svg"><!--! Font Awesome Pro 6.2.1 by @fontawesome - https://fontawesome.com License - https://fontawesome.com/license (Commercial License) Copyright 2022 Fonticons, Inc.--><path d="M367.2 412.5 99.5 144.8C77.1 176.1 64 214.5 64 256c0 106 86 192 192 192 41.5 0 79.9-13.1 111.2-35.5zm45.3-45.3C434.9 335.9 448 297.5 448 256c0-106-86-192-192-192-41.5 0-79.9 13.1-111.2 35.5l267.7 267.7zM512 256c0 141.4-114.6 256-256 256S0 397.4 0 256 114.6 0 256 0s256 114.6 256 256z"/></svg><svg fill="none" viewBox="0 0 10 10" id="breadcrumbs-arrow" xmlns="http://www.w3.org/2000/svg"><path d="M4.004 8.59 6.594 6a.996.996 0 0 0 0-1.41L4.004 2c-.63-.63-1.71-.18-1.71.71v5.18c0 .89 1.08 1.33 1.71.7Z" fill="#F1892B"/></svg><svg viewBox="0 0 24 24" id="calc" xmlns="http://www.w3.org/2000/svg"><path fill-rule="evenodd" clip-rule="evenodd" d="M18 1H6a2 2 0 0 0-2 2v18a2 2 0 0 0 2 2h12a2 2 0 0 0 2-2V3a2 2 0 0 0-2-2ZM6 7V3h12v4H6Zm0 2v12h12V9H6Zm4 10H8v-2h2v2Zm1 0h2v-2h-2v2Zm5 0h-2v-5h2v5Zm-8-3h2v-2H8v2Zm5 0h-2v-2h2v2Zm-3-3H8v-2h2v2Zm1 0h2v-2h-2v2Zm5 0h-2v-2h2v2Z"/></svg><svg viewBox="0 0 25 24" id="cart" xmlns="http://www.w3.org/2000/svg"><path fill-rule="evenodd" clip-rule="evenodd" d="M6.571 4.003c-.177 0-.349.02-.511.057a4.344 4.344 0 0 0-.853-1.267C4.638 2.224 3.742 2 2.5 2v2c.758 0 1.195.11 1.293.207C4.17 4.585 4.5 5.353 4.5 6l.01.141.98 6.86c-1.64.085-2.91 1.358-2.989 2.95L2.5 17c.097 1.644 1.363 2.909 2.943 2.998h.227a3.001 3.001 0 0 0 5.66.002h2.34a3.001 3.001 0 1 0 0-2h-2.34a3.001 3.001 0 0 0-5.66 0H5.5c-.51-.03-.967-.488-1.002-1.06L4.5 16c.027-.519.481-.973 1.05-1.001h1.974l.014.001h10.079l.148-.047a2.625 2.625 0 0 0 1.652-1.55l.105-.209.343-.678 1.053-2.092c.845-1.683 1.377-2.752 1.495-3.015.604-1.349-.62-2.387-1.872-2.409L6.57 4.003ZM17.27 13H7.613a.17.17 0 0 1-.123-.14L6.51 6l13.883.995c-.242.495-.684 1.38-1.262 2.531l-.015.029c-.33.657-.683 1.36-1.037 2.06l-.342.677-.13.257-.048.113a.625.625 0 0 1-.29.338Zm-.769 7a1 1 0 1 0 0-2 1 1 0 0 0 0 2Zm-7-1a1 1 0 1 1-2 0 1 1 0 0 1 2 0Z"/></svg><svg viewBox="0 0 512 512" id="check" xmlns="http://www.w3.org/2000/svg"><!--! Font Awesome Pro 6.2.1 by @fontawesome - https://fontawesome.com License - https://fontawesome.com/license (Commercial License) Copyright 2022 Fonticons, Inc.--><path d="M470.6 105.4c12.5 12.5 12.5 32.8 0 45.3l-256 256c-12.5 12.5-32.8 12.5-45.3 0l-128-128c-12.5-12.5-12.5-32.8 0-45.3s32.8-12.5 45.3 0L192 338.7l233.4-233.3c12.5-12.5 32.8-12.5 45.3 0z"/></svg><svg viewBox="0 0 448 512" id="chevron-up" xmlns="http://www.w3.org/2000/svg"><path d="m240.971 130.524 194.343 194.343c9.373 9.373 9.373 24.569 0 33.941l-22.667 22.667c-9.357 9.357-24.522 9.375-33.901.04L224 227.495 69.255 381.516c-9.379 9.335-24.544 9.317-33.901-.04l-22.667-22.667c-9.373-9.373-9.373-24.569 0-33.941L207.03 130.525c9.372-9.373 24.568-9.373 33.941-.001z"/></svg><svg viewBox="0 0 24 24" id="clock" xmlns="http://www.w3.org/2000/svg"><path fill-rule="evenodd" clip-rule="evenodd" d="M12 23C5.925 23 1 18.075 1 12S5.925 1 12 1s11 4.925 11 11-4.925 11-11 11Zm0-2a9 9 0 1 0 0-18 9 9 0 0 0 0 18Zm5-10h-4V6h-2v7h6v-2Z"/></svg><svg viewBox="0 0 512 512" id="comment" xmlns="http://www.w3.org/2000/svg"><!--! Font Awesome Pro 6.2.1 by @fontawesome - https://fontawesome.com License - https://fontawesome.com/license (Commercial License) Copyright 2022 Fonticons, Inc.--><path d="M256 448c141.4 0 256-93.1 256-208S397.4 32 256 32 0 125.1 0 240c0 45.1 17.7 86.8 47.7 120.9-1.9 24.5-11.4 46.3-21.4 62.9-5.5 9.2-11.1 16.6-15.2 21.6-2.1 2.5-3.7 4.4-4.9 5.7-.6.6-1 1.1-1.3 1.4l-.3.3c-4.6 4.6-5.9 11.4-3.4 17.4 2.5 6 8.3 9.9 14.8 9.9 28.7 0 57.6-8.9 81.6-19.3 22.9-10 42.4-21.9 54.3-30.6 31.8 11.5 67 17.9 104.1 17.9zM128 272c-17.7 0-32-14.3-32-32s14.3-32 32-32 32 14.3 32 32-14.3 32-32 32zm128 0c-17.7 0-32-14.3-32-32s14.3-32 32-32 32 14.3 32 32-14.3 32-32 32zm160-32c0 17.7-14.3 32-32 32s-32-14.3-32-32 14.3-32 32-32 32 14.3 32 32z"/></svg><svg viewBox="0 0 24 24" id="discount" xmlns="http://www.w3.org/2000/svg"><path fill-rule="evenodd" clip-rule="evenodd" d="M12 23C5.925 23 1 18.075 1 12S5.925 1 12 1s11 4.925 11 11-4.925 11-11 11Zm0-2a9 9 0 1 0 0-18 9 9 0 0 0 0 18Zm1-6a3 3 0 1 0 6 0 3 3 0 0 0-6 0Zm3 1a1 1 0 1 0 0-2 1 1 0 0 0 0 2ZM5 9a3 3 0 1 0 6 0 3 3 0 0 0-6 0Zm3 1a1 1 0 1 0 0-2 1 1 0 0 0 0 2Zm2.118 8 6-12h-2.236l-6 12h2.236Z"/></svg><svg viewBox="0 0 24 24" id="email" xmlns="http://www.w3.org/2000/svg"><path fill-rule="evenodd" clip-rule="evenodd" d="M3 3h18a2 2 0 0 1 2 2v14a2 2 0 0 1-2 2H3a2 2 0 0 1-2-2V5a2 2 0 0 1 2-2Zm0 6.618V19h18V9.619l-9 4.5-9-4.5Zm0-2.236 9 4.5 9-4.5V5H3v2.382Z"/></svg><svg viewBox="0 0 512 512" id="globe" xmlns="http://www.w3.org/2000/svg"><!--! Font Awesome Pro 6.2.1 by @fontawesome - https://fontawesome.com License - https://fontawesome.com/license (Commercial License) Copyright 2022 Fonticons, Inc.--><path d="M352 256c0 22.2-1.2 43.6-3.3 64H163.3c-2.2-20.4-3.3-41.8-3.3-64s1.2-43.6 3.3-64h185.4c2.2 20.4 3.3 41.8 3.3 64zm28.8-64h123.1c5.3 20.5 8.1 41.9 8.1 64s-2.8 43.5-8.1 64H380.8c2.1-20.6 3.2-42 3.2-64s-1.1-43.4-3.2-64zm112.6-32H376.7c-10-63.9-29.8-117.4-55.3-151.6 78.3 20.7 142 77.5 171.9 151.6zm-149.1 0H167.7c6.1-36.4 15.5-68.6 27-94.7 10.5-23.6 22.2-40.7 33.5-51.5C239.4 3.2 248.7 0 256 0s16.6 3.2 27.8 13.8c11.3 10.8 23 27.9 33.5 51.5 11.6 26 21 58.2 27 94.7zm-209 0H18.6c30-74.1 93.6-130.9 172-151.6-25.5 34.2-45.3 87.7-55.3 151.6zM8.1 192h123.1c-2.1 20.6-3.2 42-3.2 64s1.1 43.4 3.2 64H8.1C2.8 299.5 0 278.1 0 256s2.8-43.5 8.1-64zm186.6 254.6c-11.6-26-20.9-58.2-27-94.6h176.6c-6.1 36.4-15.5 68.6-27 94.6-10.5 23.6-22.2 40.7-33.5 51.5-11.2 10.7-20.5 13.9-27.8 13.9s-16.6-3.2-27.8-13.8c-11.3-10.8-23-27.9-33.5-51.5zM135.3 352c10 63.9 29.8 117.4 55.3 151.6-78.4-20.7-142-77.5-172-151.6h116.7zm358.1 0c-30 74.1-93.6 130.9-171.9 151.6 25.5-34.2 45.2-87.7 55.3-151.6h116.6z"/></svg><svg viewBox="0 0 512 512" id="image" xmlns="http://www.w3.org/2000/svg"><!--! Font Awesome Pro 6.2.1 by @fontawesome - https://fontawesome.com License - https://fontawesome.com/license (Commercial License) Copyright 2022 Fonticons, Inc.--><path d="M152 120c-26.51 0-48 21.49-48 48s21.49 48 48 48 48-21.49 48-48-21.5-48-48-48zm295.1-88h-384C28.65 32-.01 60.65-.01 96v320c0 35.35 28.65 64 63.1 64h384c35.35 0 64-28.65 64-64V96c.01-35.35-27.79-64-63.99-64zm16 377.3L326.3 223.4c-2.5-4.6-8.2-7.4-14.3-7.4-6.113 0-11.82 2.768-15.21 7.379l-106.6 144.1-37.09-46.1c-3.441-4.279-8.934-6.809-14.77-6.809-5.842 0-11.33 2.529-14.78 6.809l-75.52 93.81c0-.03 0 .03 0 0L47.99 96c0-8.822 7.178-16 16-16h384c8.822 0 16 7.178 16 16v313.3z"/></svg><svg viewBox="0 0 24 24" id="location" xmlns="http://www.w3.org/2000/svg"><path fill-rule="evenodd" clip-rule="evenodd" d="m12 23.328.658-.575C18.188 17.923 21 13.707 21 10c0-5.25-4.097-9-9-9s-9 3.75-9 9c0 3.707 2.811 7.924 8.342 12.753l.658.575Zm0-2.665C7.307 16.433 5 12.85 5 10c0-4.103 3.164-7 7-7s7 2.897 7 7c0 2.85-2.307 6.433-7 10.663ZM12 5a5 5 0 1 1 0 10 5 5 0 0 1 0-10Zm-3 5a3 3 0 1 1 6 0 3 3 0 0 1-6 0Z"/></svg><svg viewBox="0 0 576 512" id="map" xmlns="http://www.w3.org/2000/svg"><!--! Font Awesome Pro 6.2.1 by @fontawesome - https://fontawesome.com License - https://fontawesome.com/license (Commercial License) Copyright 2022 Fonticons, Inc.--><path d="M408 120c0 54.6-73.1 151.9-105.2 192-7.7 9.6-22 9.6-29.6 0C241.1 271.9 168 174.6 168 120 168 53.7 221.7 0 288 0s120 53.7 120 120zm8 80.4c3.5-6.9 6.7-13.8 9.6-20.6.5-1.2 1-2.5 1.5-3.7l116-46.4c15.8-6.3 32.9 5.3 32.9 22.3v270.8c0 9.8-6 18.6-15.1 22.3L416 503V200.4zm-278.4-62.1c2.4 14.1 7.2 28.3 12.8 41.5 2.9 6.8 6.1 13.7 9.6 20.6v251.4L32.9 502.7C17.1 509 0 497.4 0 480.4V209.6c0-9.8 6-18.6 15.1-22.3l122.6-49zM327.8 332c13.9-17.4 35.7-45.7 56.2-77v249.3l-192-54.9V255c20.5 31.3 42.3 59.6 56.2 77 20.5 25.6 59.1 25.6 79.6 0zM288 152c22.1 0 40-17.9 40-40s-17.9-40-40-40-40 17.9-40 40 17.9 40 40 40z"/></svg><svg viewBox="0 0 30 30" id="minus" xmlns="http://www.w3.org/2000/svg"><path d="M3.75 15C3.75 8.787 8.787 3.75 15 3.75S26.25 8.787 26.25 15 21.213 26.25 15 26.25 3.75 21.213 3.75 15Z"/><path d="M10 15h10" stroke="#fff" stroke-width="2" stroke-linecap="round"/></svg><svg viewBox="0 0 24 24" id="pencil" xmlns="http://www.w3.org/2000/svg"><path fill-rule="evenodd" clip-rule="evenodd" d="M16.437 2c.655 0 1.283.261 1.741.723l3.101 3.101a2.462 2.462 0 0 1 0 3.482L9.958 20.624c-.699.806-1.69 1.3-2.823 1.378H2v-1l.003-4.215c.085-1.054.576-2.035 1.323-2.694l11.37-11.368A2.456 2.456 0 0 1 16.436 2ZM7.064 20.005c.534-.038 1.031-.287 1.43-.743l7.563-7.562-3.755-3.755-7.606 7.605c-.405.358-.656.86-.696 1.318v3.135l3.064.002ZM13.717 6.53l3.754 3.755 2.394-2.394a.462.462 0 0 0 0-.653L16.76 4.135a.456.456 0 0 0-.647 0L13.717 6.53Z"/></svg><svg viewBox="0 0 24 24" id="phone" xmlns="http://www.w3.org/2000/svg"><path fill-rule="evenodd" clip-rule="evenodd" d="M10.857 8.338c.518-.698.704-1.434.118-2.084-1.315-1.84-2.2-2.977-2.754-3.525-1.055-1.042-2.79-.901-3.703-.001-.49.483-.657.65-1.16 1.16C.552 6.697 2.263 12.63 6.81 17.184c4.548 4.552 10.482 6.264 13.293 3.451.465-.448.858-.842 1.169-1.17.895-.946 1.03-2.604-.006-3.681-.532-.553-1.617-1.394-3.534-2.766-.587-.525-1.284-.411-1.922.008-.307.201-.53.405-.952.827l-.767.767c-.1.1-1.471-.585-2.801-1.917C9.96 11.37 9.274 9.999 9.374 9.899l.767-.767c.134-.134.198-.2.28-.286.171-.18.313-.342.436-.508Zm4.649 7.695.766-.767c.232-.232.383-.375.505-.474 1.68 1.207 2.653 1.965 3.05 2.378.239.248.202.7-.006.92-.287.302-.66.676-1.117 1.117-1.818 1.819-6.608.437-10.479-3.438-3.872-3.876-5.253-8.666-3.449-10.471.502-.51.66-.669 1.144-1.145.182-.179.676-.219.896-.001.427.422 1.22 1.436 2.385 3.06-.06.074-.136.159-.228.255-.067.071-.123.128-.246.25l-.766.767c-1.303 1.303-.193 3.52 1.916 5.632 2.107 2.11 4.326 3.22 5.629 1.917Z"/></svg><svg viewBox="0 0 24 24" id="phone2" xmlns="http://www.w3.org/2000/svg"><path fill-rule="evenodd" clip-rule="evenodd" d="M10.975 6.254c.585.65.4 1.386-.118 2.084a5.465 5.465 0 0 1-.436.508c-.082.087-.146.151-.28.285l-.767.768c-.1.1.586 1.47 1.917 2.803 1.33 1.331 2.7 2.018 2.801 1.917l.767-.767c.422-.422.645-.626.952-.828.639-.418 1.335-.532 1.922-.007 1.917 1.372 3.002 2.213 3.534 2.765 1.037 1.078.9 2.736.006 3.682-.31.328-.704.722-1.169 1.17-2.811 2.813-8.745 1.101-13.293-3.451C2.263 12.63.551 6.696 3.358 3.889c.503-.512.67-.678 1.16-1.161.913-.9 2.648-1.041 3.703 0 .554.548 1.439 1.686 2.754 3.526Zm5.297 9.012-.766.767c-1.303 1.303-3.521.192-5.629-1.917-2.109-2.111-3.219-4.329-1.916-5.632l.766-.766c.123-.123.18-.18.246-.25.092-.097.167-.182.228-.257-1.166-1.623-1.958-2.637-2.385-3.06-.22-.217-.714-.177-.896.002-.483.476-.642.635-1.144 1.144-1.804 1.806-.423 6.596 3.45 10.472 3.87 3.875 8.66 5.257 10.478 3.438.457-.442.83-.815 1.117-1.118.208-.22.245-.671.006-.92-.397-.412-1.37-1.17-3.05-2.377a6.835 6.835 0 0 0-.505.474ZM20 11V9h-3.586l5.293-5.293-1.414-1.414L15 7.586V4h-2v7h7Z"/></svg><svg viewBox="0 0 512 512" id="play" xmlns="http://www.w3.org/2000/svg"><!--! Font Awesome Pro 6.2.1 by @fontawesome - https://fontawesome.com License - https://fontawesome.com/license (Commercial License) Copyright 2022 Fonticons, Inc.--><path fill="#fff" d="M188.3 147.1c7.5-4.3 16.8-5 24.2.4l144 88c7.1 4.4 11.5 12.1 11.5 20.5s-4.4 16.1-11.5 20.5l-144 88c-7.4 4.5-16.7 4.7-24.2.4-7.6-4.2-12.3-12.2-12.3-20.9V167.1c0-7.8 4.7-15.8 12.3-20zM512 256c0 141.4-114.6 256-256 256S0 397.4 0 256 114.6 0 256 0s256 114.6 256 256zM256 48C141.1 48 48 141.1 48 256s93.1 208 208 208 208-93.1 208-208S370.9 48 256 48z"/></svg><svg viewBox="0 0 30 30" id="plus" xmlns="http://www.w3.org/2000/svg"><path d="M3.75 15C3.75 8.787 8.787 3.75 15 3.75S26.25 8.787 26.25 15 21.213 26.25 15 26.25 3.75 21.213 3.75 15Z"/><path d="M10 15h10m-5-5v10" stroke="#fff" stroke-width="2" stroke-linecap="round"/></svg><svg fill="none" viewBox="0 0 30 30" id="plus-tag" xmlns="http://www.w3.org/2000/svg"><path d="M3.75 15C3.75 8.787 8.787 3.75 15 3.75S26.25 8.787 26.25 15 21.213 26.25 15 26.25 3.75 21.213 3.75 15ZM10 15h10m-5-5v10"/></svg><svg viewBox="0 0 512 512" id="print" xmlns="http://www.w3.org/2000/svg"><!--! Font Awesome Pro 6.2.1 by @fontawesome - https://fontawesome.com License - https://fontawesome.com/license (Commercial License) Copyright 2022 Fonticons, Inc.--><path d="M128 0C92.7 0 64 28.7 64 64v96h64V64h226.7L384 93.3V160h64V93.3c0-17-6.7-33.3-18.7-45.3L400 18.7C388 6.7 371.7 0 354.7 0H128zm256 352v96H128v-96h256zm64 32h32c17.7 0 32-14.3 32-32v-96c0-35.3-28.7-64-64-64H64c-35.3 0-64 28.7-64 64v96c0 17.7 14.3 32 32 32h32v64c0 35.3 28.7 64 64 64h256c35.3 0 64-28.7 64-64v-64zm-16-88c-13.3 0-24-10.7-24-24s10.7-24 24-24 24 10.7 24 24-10.7 24-24 24z"/></svg><svg viewBox="0 0 24 24" id="product" xmlns="http://www.w3.org/2000/svg"><path fill-rule="evenodd" clip-rule="evenodd" d="M4 2h5a2 2 0 0 1 2 2v5a2 2 0 0 1-2 2H4a2 2 0 0 1-2-2V4a2 2 0 0 1 2-2Zm0 11h5a2 2 0 0 1 2 2v5a2 2 0 0 1-2 2H4a2 2 0 0 1-2-2v-5a2 2 0 0 1 2-2Zm14 0h-2v3h-3v2h3v3h2v-3h3v-2h-3v-3ZM4 20v-5h5v5H4ZM4 9V4h5v5H4Zm11-7h5a2 2 0 0 1 2 2v5a2 2 0 0 1-2 2h-5a2 2 0 0 1-2-2V4a2 2 0 0 1 2-2Zm0 7V4h5v5h-5Z"/></svg><svg viewBox="0 0 24 24" id="product-btn" xmlns="http://www.w3.org/2000/svg"><rect width="24" height="24" rx="4"/><path fill-rule="evenodd" clip-rule="evenodd" d="M12.8 11.2H20v1.6h-7.2V20h-1.6v-7.2H4v-1.6h7.2V4h1.6v7.2Z" fill="#fff"/></svg><svg viewBox="0 0 320 512" id="s-facebook" xmlns="http://www.w3.org/2000/svg"><!--! Font Awesome Pro 6.2.1 by @fontawesome - https://fontawesome.com License - https://fontawesome.com/license (Commercial License) Copyright 2022 Fonticons, Inc.--><path d="m279.14 288 14.22-92.66h-88.91v-60.13c0-25.35 12.42-50.06 52.24-50.06h40.42V6.26S260.43 0 225.36 0c-73.22 0-121.08 44.38-121.08 124.72v70.62H22.89V288h81.39v224h100.17V288z"/></svg><svg viewBox="0 0 448 512" id="s-instagram" xmlns="http://www.w3.org/2000/svg"><!--! Font Awesome Pro 6.2.1 by @fontawesome - https://fontawesome.com License - https://fontawesome.com/license (Commercial License) Copyright 2022 Fonticons, Inc.--><path d="M224.1 141c-63.6 0-114.9 51.3-114.9 114.9s51.3 114.9 114.9 114.9S339 319.5 339 255.9 287.7 141 224.1 141zm0 189.6c-41.1 0-74.7-33.5-74.7-74.7s33.5-74.7 74.7-74.7 74.7 33.5 74.7 74.7-33.6 74.7-74.7 74.7zm146.4-194.3c0 14.9-12 26.8-26.8 26.8-14.9 0-26.8-12-26.8-26.8s12-26.8 26.8-26.8 26.8 12 26.8 26.8zm76.1 27.2c-1.7-35.9-9.9-67.7-36.2-93.9-26.2-26.2-58-34.4-93.9-36.2-37-2.1-147.9-2.1-184.9 0-35.8 1.7-67.6 9.9-93.9 36.1s-34.4 58-36.2 93.9c-2.1 37-2.1 147.9 0 184.9 1.7 35.9 9.9 67.7 36.2 93.9s58 34.4 93.9 36.2c37 2.1 147.9 2.1 184.9 0 35.9-1.7 67.7-9.9 93.9-36.2 26.2-26.2 34.4-58 36.2-93.9 2.1-37 2.1-147.8 0-184.8zM398.8 388c-7.8 19.6-22.9 34.7-42.6 42.6-29.5 11.7-99.5 9-132.1 9s-102.7 2.6-132.1-9c-19.6-7.8-34.7-22.9-42.6-42.6-11.7-29.5-9-99.5-9-132.1s-2.6-102.7 9-132.1c7.8-19.6 22.9-34.7 42.6-42.6 29.5-11.7 99.5-9 132.1-9s102.7-2.6 132.1 9c19.6 7.8 34.7 22.9 42.6 42.6 11.7 29.5 9 99.5 9 132.1s2.7 102.7-9 132.1z"/></svg><svg viewBox="0 0 320 512" id="s-odnoklassniki" xmlns="http://www.w3.org/2000/svg"><!--! Font Awesome Pro 6.2.1 by @fontawesome - https://fontawesome.com License - https://fontawesome.com/license (Commercial License) Copyright 2022 Fonticons, Inc.--><path d="M275.1 334c-27.4 17.4-65.1 24.3-90 26.9l20.9 20.6 76.3 76.3c27.9 28.6-17.5 73.3-45.7 45.7-19.1-19.4-47.1-47.4-76.3-76.6L84 503.4c-28.2 27.5-73.6-17.6-45.4-45.7 19.4-19.4 47.1-47.4 76.3-76.3l20.6-20.6c-24.6-2.6-62.9-9.1-90.6-26.9-32.6-21-46.9-33.3-34.3-59 7.4-14.6 27.7-26.9 54.6-5.7 0 0 36.3 28.9 94.9 28.9s94.9-28.9 94.9-28.9c26.9-21.1 47.1-8.9 54.6 5.7 12.4 25.7-1.9 38-34.5 59.1zM30.3 129.7C30.3 58 88.6 0 160 0s129.7 58 129.7 129.7c0 71.4-58.3 129.4-129.7 129.4s-129.7-58-129.7-129.4zm66 0c0 35.1 28.6 63.7 63.7 63.7s63.7-28.6 63.7-63.7c0-35.4-28.6-64-63.7-64s-63.7 28.6-63.7 64z"/></svg><svg viewBox="0 0 20 18" id="s-telegram" xmlns="http://www.w3.org/2000/svg"><path d="m.35 8.64 4.599 1.769 1.792 5.95c.078.402.546.482.858.241l2.571-2.17c.234-.242.624-.242.935 0l4.599 3.457c.311.24.779.08.857-.322L19.99.68c.078-.402-.312-.805-.701-.644L.35 7.595c-.468.16-.468.884 0 1.045Zm6.157.884 9.04-5.709c.157-.08.313.161.157.242L8.3 11.213c-.234.241-.468.563-.468.965l-.233 1.93c0 .24-.39.321-.468 0l-.935-3.538c-.234-.402-.078-.885.311-1.046Z"/></svg><svg viewBox="0 0 512 512" id="s-twitter" xmlns="http://www.w3.org/2000/svg"><!--! Font Awesome Pro 6.2.1 by @fontawesome - https://fontawesome.com License - https://fontawesome.com/license (Commercial License) Copyright 2022 Fonticons, Inc.--><path d="M459.37 151.716c.325 4.548.325 9.097.325 13.645 0 138.72-105.583 298.558-298.558 298.558-59.452 0-114.68-17.219-161.137-47.106 8.447.974 16.568 1.299 25.34 1.299 49.055 0 94.213-16.568 130.274-44.832-46.132-.975-84.792-31.188-98.112-72.772 6.498.974 12.995 1.624 19.818 1.624 9.421 0 18.843-1.3 27.614-3.573-48.081-9.747-84.143-51.98-84.143-102.985v-1.299c13.969 7.797 30.214 12.67 47.431 13.319-28.264-18.843-46.781-51.005-46.781-87.391 0-19.492 5.197-37.36 14.294-52.954 51.655 63.675 129.3 105.258 216.365 109.807-1.624-7.797-2.599-15.918-2.599-24.04 0-57.828 46.782-104.934 104.934-104.934 30.213 0 57.502 12.67 76.67 33.137 23.715-4.548 46.456-13.32 66.599-25.34-7.798 24.366-24.366 44.833-46.132 57.827 21.117-2.273 41.584-8.122 60.426-16.243-14.292 20.791-32.161 39.308-52.628 54.253z"/></svg><svg viewBox="0 0 512 512" id="s-viber" xmlns="http://www.w3.org/2000/svg"><!--! Font Awesome Pro 6.2.1 by @fontawesome - https://fontawesome.com License - https://fontawesome.com/license (Commercial License) Copyright 2022 Fonticons, Inc.--><path d="M444 49.9C431.3 38.2 379.9.9 265.3.4c0 0-135.1-8.1-200.9 52.3C27.8 89.3 14.9 143 13.5 209.5c-1.4 66.5-3.1 191.1 117 224.9h.1l-.1 51.6s-.8 20.9 13 25.1c16.6 5.2 26.4-10.7 42.3-27.8 8.7-9.4 20.7-23.2 29.8-33.7 82.2 6.9 145.3-8.9 152.5-11.2 16.6-5.4 110.5-17.4 125.7-142 15.8-128.6-7.6-209.8-49.8-246.5zM457.9 287c-12.9 104-89 110.6-103 115.1-6 1.9-61.5 15.7-131.2 11.2 0 0-52 62.7-68.2 79-5.3 5.3-11.1 4.8-11-5.7 0-6.9.4-85.7.4-85.7-.1 0-.1 0 0 0-101.8-28.2-95.8-134.3-94.7-189.8 1.1-55.5 11.6-101 42.6-131.6 55.7-50.5 170.4-43 170.4-43 96.9.4 143.3 29.6 154.1 39.4 35.7 30.6 53.9 103.8 40.6 211.1zm-139-80.8c.4 8.6-12.5 9.2-12.9.6-1.1-22-11.4-32.7-32.6-33.9-8.6-.5-7.8-13.4.7-12.9 27.9 1.5 43.4 17.5 44.8 46.2zm20.3 11.3c1-42.4-25.5-75.6-75.8-79.3-8.5-.6-7.6-13.5.9-12.9 58 4.2 88.9 44.1 87.8 92.5-.1 8.6-13.1 8.2-12.9-.3zm47 13.4c.1 8.6-12.9 8.7-12.9.1-.6-81.5-54.9-125.9-120.8-126.4-8.5-.1-8.5-12.9 0-12.9 73.7.5 133 51.4 133.7 139.2zM374.9 329v.2c-10.8 19-31 40-51.8 33.3l-.2-.3c-21.1-5.9-70.8-31.5-102.2-56.5-16.2-12.8-31-27.9-42.4-42.4-10.3-12.9-20.7-28.2-30.8-46.6-21.3-38.5-26-55.7-26-55.7-6.7-20.8 14.2-41 33.3-51.8h.2c9.2-4.8 18-3.2 23.9 3.9 0 0 12.4 14.8 17.7 22.1 5 6.8 11.7 17.7 15.2 23.8 6.1 10.9 2.3 22-3.7 26.6l-12 9.6c-6.1 4.9-5.3 14-5.3 14s17.8 67.3 84.3 84.3c0 0 9.1.8 14-5.3l9.6-12c4.6-6 15.7-9.8 26.6-3.7 14.7 8.3 33.4 21.2 45.8 32.9 7 5.7 8.6 14.4 3.8 23.6z"/></svg><svg viewBox="0 0 576 512" id="s-vk" xmlns="http://www.w3.org/2000/svg"><path d="M545 117.7c3.7-12.5 0-21.7-17.8-21.7h-58.9c-15 0-21.9 7.9-25.6 16.7 0 0-30 73.1-72.4 120.5-13.7 13.7-20 18.1-27.5 18.1-3.7 0-9.4-4.4-9.4-16.9V117.7c0-15-4.2-21.7-16.6-21.7h-92.6c-9.4 0-15 7-15 13.5 0 14.2 21.2 17.5 23.4 57.5v86.8c0 19-3.4 22.5-10.9 22.5-20 0-68.6-73.4-97.4-157.4-5.8-16.3-11.5-22.9-26.6-22.9H38.8c-16.8 0-20.2 7.9-20.2 16.7 0 15.6 20 93.1 93.1 195.5C160.4 378.1 229 416 291.4 416c37.5 0 42.1-8.4 42.1-22.9 0-66.8-3.4-73.1 15.4-73.1 8.7 0 23.7 4.4 58.7 38.1 40 40 46.6 57.9 69 57.9h58.9c16.8 0 25.3-8.4 20.4-25-11.2-34.9-86.9-106.7-90.3-111.5-8.7-11.2-6.2-16.2 0-26.2.1-.1 72-101.3 79.4-135.6z"/></svg><svg viewBox="0 0 20 20" id="s-whatsapp" xmlns="http://www.w3.org/2000/svg"><path d="M17.073 2.917A9.932 9.932 0 0 0 10.035 0C4.53 0 .07 4.444.07 9.93c0 1.737.487 3.473 1.324 4.931L0 20l5.296-1.389a10.188 10.188 0 0 0 4.739 1.18c5.505 0 9.965-4.444 9.965-9.93-.07-2.57-1.045-5.07-2.927-6.944Zm-2.23 10.555c-.209.556-1.184 1.111-1.672 1.18-.418.07-.976.07-1.533-.069-.349-.139-.837-.277-1.394-.555-2.509-1.042-4.112-3.542-4.251-3.75-.14-.14-1.045-1.32-1.045-2.57 0-1.25.627-1.805.836-2.083.209-.278.488-.278.697-.278h.488c.139 0 .348-.07.557.417.21.486.697 1.736.767 1.805.07.14.07.278 0 .417-.07.139-.14.278-.28.417-.138.139-.278.347-.348.416-.139.14-.278.278-.139.487.14.277.627 1.041 1.394 1.736.975.833 1.742 1.11 2.02 1.25.28.139.419.07.558-.07.14-.139.627-.694.767-.972s.348-.208.557-.139c.21.07 1.464.695 1.673.833.279.14.418.209.488.278.07.209.07.695-.14 1.25Z"/></svg><svg viewBox="0 0 576 512" id="s-youtube" xmlns="http://www.w3.org/2000/svg"><!--! Font Awesome Pro 6.2.1 by @fontawesome - https://fontawesome.com License - https://fontawesome.com/license (Commercial License) Copyright 2022 Fonticons, Inc.--><path d="M549.655 124.083c-6.281-23.65-24.787-42.276-48.284-48.597C458.781 64 288 64 288 64S117.22 64 74.629 75.486c-23.497 6.322-42.003 24.947-48.284 48.597-11.412 42.867-11.412 132.305-11.412 132.305s0 89.438 11.412 132.305c6.281 23.65 24.787 41.5 48.284 47.821C117.22 448 288 448 288 448s170.78 0 213.371-11.486c23.497-6.321 42.003-24.171 48.284-47.821 11.412-42.867 11.412-132.305 11.412-132.305s0-89.438-11.412-132.305zm-317.51 213.508V175.185l142.739 81.205-142.739 81.201z"/></svg><svg viewBox="0 0 30 30" id="search" xmlns="http://www.w3.org/2000/svg"><path fill-rule="evenodd" clip-rule="evenodd" d="M12.743 22.485C7.362 22.485 3 18.123 3 12.743 3 7.362 7.362 3 12.743 3c5.38 0 9.742 4.362 9.742 9.743a9.701 9.701 0 0 1-2.046 5.974L27 25.277 25.278 27l-6.561-6.56a9.701 9.701 0 0 1-5.974 2.045Zm7.307-9.742a7.307 7.307 0 1 1-14.614 0 7.307 7.307 0 0 1 14.614 0Z"/></svg><svg viewBox="0 0 24 24" id="size" xmlns="http://www.w3.org/2000/svg"><path fill-rule="evenodd" clip-rule="evenodd" d="M13.414 12 19 17.586V14h2v7h-7v-2h3.586L12 13.414 6.414 19H10v2H3v-7h2v3.586L10.586 12 5 6.414V10H3V3h7v2H6.414L12 10.586 17.586 5H14V3h7v7h-2V6.414L13.414 12Z"/></svg><svg viewBox="0 0 30 30" id="th-lg" xmlns="http://www.w3.org/2000/svg"><g clip-path="url(#bna)"><path d="M9 .6H.6V9H9V.6ZM7.8 7.8h-6v-6h6v6ZM19.2.6h-8.4V9h8.4V.6ZM18 7.8h-6v-6h6v6ZM21 9h8.4V.6H21V9Zm1.2-7.2h6v6h-6v-6ZM9 10.8H.6v8.4H9v-8.4ZM7.8 18h-6v-6h6v6ZM10.8 19.2h8.4v-8.4h-8.4v8.4ZM12 12h6v6h-6v-6ZM21 19.2h8.4v-8.4H21v8.4Zm1.2-7.2h6v6h-6v-6ZM9 21H.6v8.4H9V21Zm-1.2 7.2h-6v-6h6v6ZM10.8 29.4h8.4V21h-8.4v8.4Zm1.2-7.2h6v6h-6v-6ZM21 29.4h8.4V21H21v8.4Zm1.2-7.2h6v6h-6v-6Z"/></g><defs><clipPath id="bna"><path d="M0 0h30v30H0z"/></clipPath></defs></svg><svg viewBox="0 0 512 512" id="th-md" xmlns="http://www.w3.org/2000/svg"><path d="M149.333 216v80c0 13.255-10.745 24-24 24H24c-13.255 0-24-10.745-24-24v-80c0-13.255 10.745-24 24-24h101.333c13.255 0 24 10.745 24 24zM0 376v80c0 13.255 10.745 24 24 24h101.333c13.255 0 24-10.745 24-24v-80c0-13.255-10.745-24-24-24H24c-13.255 0-24 10.745-24 24zM125.333 32H24C10.745 32 0 42.745 0 56v80c0 13.255 10.745 24 24 24h101.333c13.255 0 24-10.745 24-24V56c0-13.255-10.745-24-24-24zm80 448H488c13.255 0 24-10.745 24-24v-80c0-13.255-10.745-24-24-24H205.333c-13.255 0-24 10.745-24 24v80c0 13.255 10.745 24 24 24zm-24-424v80c0 13.255 10.745 24 24 24H488c13.255 0 24-10.745 24-24V56c0-13.255-10.745-24-24-24H205.333c-13.255 0-24 10.745-24 24zm24 264H488c13.255 0 24-10.745 24-24v-80c0-13.255-10.745-24-24-24H205.333c-13.255 0-24 10.745-24 24v80c0 13.255 10.745 24 24 24z"/></svg><svg viewBox="0 0 30 30" id="th-sm" xmlns="http://www.w3.org/2000/svg"><g clip-path="url(#bpa)"><path d="M4.8 9C7.116 9 9 7.116 9 4.8 9 2.484 7.116.6 4.8.6A4.205 4.205 0 0 0 .6 4.8C.6 7.116 2.484 9 4.8 9Zm0-7.2c1.654 0 3 1.346 3 3s-1.346 3-3 3-3-1.346-3-3 1.346-3 3-3ZM29.4 4.2H10.8v1.2h18.6V4.2ZM4.8 19.2C7.116 19.2 9 17.316 9 15c0-2.316-1.884-4.2-4.2-4.2A4.205 4.205 0 0 0 .6 15c0 2.316 1.884 4.2 4.2 4.2Zm0-7.2c1.654 0 3 1.346 3 3s-1.346 3-3 3-3-1.346-3-3 1.346-3 3-3ZM29.4 14.4H10.8v1.2h18.6v-1.2ZM4.8 29.4c2.316 0 4.2-1.884 4.2-4.2C9 22.884 7.116 21 4.8 21a4.205 4.205 0 0 0-4.2 4.2c0 2.316 1.884 4.2 4.2 4.2Zm0-7.2c1.654 0 3 1.346 3 3s-1.346 3-3 3-3-1.346-3-3 1.346-3 3-3ZM29.4 24.6H10.8v1.2h18.6v-1.2Z"/></g><defs><clipPath id="bpa"><path d="M0 0h30v30H0z"/></clipPath></defs></svg><svg viewBox="0 0 448 512" id="trash" xmlns="http://www.w3.org/2000/svg"><!--! Font Awesome Pro 6.2.1 by @fontawesome - https://fontawesome.com License - https://fontawesome.com/license (Commercial License) Copyright 2022 Fonticons, Inc.--><path d="M160 400c0 8.8-7.2 16-16 16s-16-7.2-16-16V192c0-8.8 7.2-16 16-16s16 7.2 16 16v208zm80 0c0 8.8-7.2 16-16 16s-16-7.2-16-16V192c0-8.8 7.2-16 16-16s16 7.2 16 16v208zm80 0c0 8.8-7.2 16-16 16s-16-7.2-16-16V192c0-8.8 7.2-16 16-16s16 7.2 16 16v208zm-2.5-375.06L354.2 80H424c13.3 0 24 10.75 24 24 0 13.3-10.7 24-24 24h-8v304c0 44.2-35.8 80-80 80H112c-44.18 0-80-35.8-80-80V128h-8c-13.25 0-24-10.7-24-24 0-13.25 10.75-24 24-24h69.82l36.68-55.06C140.9 9.357 158.4 0 177.1 0h93.8c18.7 0 36.2 9.358 46.6 24.94zM151.5 80h145l-19-28.44c-1.5-2.22-4-3.56-6.6-3.56h-93.8c-2.6 0-6 1.34-6.6 3.56L151.5 80zM80 432c0 17.7 14.33 32 32 32h224c17.7 0 32-14.3 32-32V128H80v304z"/></svg><svg fill="none" viewBox="0 0 9 15" id="ul-arrow" xmlns="http://www.w3.org/2000/svg"><path d="M2.03 14.178 8.123 8.03c.133-.16.233-.354.233-.547 0-.193-.1-.386-.233-.515L2.029.822A.814.814 0 0 0 .897.79c-.333.29-.333.773-.033 1.094l5.595 5.632-5.595 5.6c-.3.29-.3.804.033 1.094.3.29.833.29 1.132-.032Z" fill="#F1892B"/><path fill-rule="evenodd" clip-rule="evenodd" d="M1.536 13.808c-.048.05-.128.048-.168.01l-.012-.012-.012-.01a.194.194 0 0 1-.058-.144.198.198 0 0 1 .049-.144l.007-.007 5.98-5.984-5.97-6.008a.256.256 0 0 1-.066-.173.173.173 0 0 1 .058-.131l.012-.011.012-.011c.04-.04.12-.042.168.01l.006.006 6.11 6.163a.23.23 0 0 1 .046.065.146.146 0 0 1 .016.057c0 .02-.015.087-.092.185l-6.08 6.132-.006.007Zm.98.747c-.55.581-1.52.585-2.078.059a1.285 1.285 0 0 1-.05-1.887l5.208-5.212L.377 2.261.37 2.254C-.116 1.732-.152.911.438.386.996-.14 1.966-.136 2.515.445L8.6 6.582c.225.22.4.546.4.902 0 .364-.182.677-.36.891l-.017.02-6.108 6.16Z" fill="#F1892B"/></svg><svg fill="none" viewBox="0 0 60 60" id="ul-marker" xmlns="http://www.w3.org/2000/svg"><circle cx="30" cy="30" r="29" stroke="#F1892B" stroke-width="2"/><rect x="10" y="10" width="40" height="40" rx="20" fill="#F1892B"/><path d="M24.222 29.765 28.376 34l7.846-8" stroke="#fff" stroke-width="3" stroke-linecap="round"/></svg><svg viewBox="0 0 24 24" id="user" xmlns="http://www.w3.org/2000/svg"><path fill-rule="evenodd" clip-rule="evenodd" d="M12 23C5.925 23 1 18.075 1 12S5.925 1 12 1s11 4.925 11 11-4.925 11-11 11Zm7.4-5.875a9 9 0 1 0-14.799 0C5.726 15.638 8.37 15 12 15c3.63 0 6.274.638 7.4 2.125Zm-1.435 1.615C17.672 17.687 15.569 17 12 17c-3.57 0-5.672.687-5.965 1.74A8.966 8.966 0 0 0 12 21a8.966 8.966 0 0 0 5.965-2.26ZM12 15c-2.24 0-4-1.573-4-5 0-2.244 1.58-4 4-4 2.414 0 4 1.922 4 4.2 0 3.28-1.782 4.8-4 4.8Zm-2-5c0 2.27.818 3 2 3 1.178 0 2-.702 2-2.8 0-1.25-.784-2.2-2-2.2-1.266 0-2 .816-2 2Z"/></svg><svg fill="none" viewBox="0 0 44 32" id="youtube" xmlns="http://www.w3.org/2000/svg"><path d="M43.081 4.936c-.522-1.931-1.97-3.446-3.833-3.981C35.817 0 22.021 0 22.021 0S8.251-.023 4.784.955C2.93 1.492 1.476 3.005.96 4.935a61.868 61.868 0 0 0-.958 11.087 62.704 62.704 0 0 0 .958 11.034c.517 1.93 1.971 3.445 3.825 3.99C8.216 32 22.021 32 22.021 32s13.761 0 17.227-.955c1.864-.544 3.31-2.057 3.834-3.99.63-3.636.939-7.335.917-11.033a62.34 62.34 0 0 0-.918-11.086ZM17.614 22.875V9.14l11.484 6.882-11.484 6.853Z" fill="#7C7A79"/></svg><svg fill="none" viewBox="0 0 60 60" id="zoom" xmlns="http://www.w3.org/2000/svg"><rect width="60" height="60" rx="30" fill="#F1892B"/><path fill-rule="evenodd" clip-rule="evenodd" d="M17.5 27.5c0 5.523 4.477 10 10 10 2.31 0 4.439-.784 6.132-2.1l6.734 6.734 1.768-1.768-6.734-6.734a9.957 9.957 0 0 0 2.1-6.132c0-5.523-4.477-10-10-10s-10 4.477-10 10Zm10 7.5a7.5 7.5 0 1 0 0-15 7.5 7.5 0 0 0 0 15Zm-1.25-12.5v3.75H22.5v2.5h3.75v3.75h2.5v-3.75h3.75v-2.5h-3.75V22.5h-2.5Z" fill="#fff"/></svg></svg>