<svg width="140" height="140" viewBox="0 0 140 140" fill="none" xmlns="http://www.w3.org/2000/svg">
<path d="M24.2766 14.0004C24.0383 14.0004 23.7702 14.0305 23.5319 14.0667C14.3009 15.6689 5.04 36.4184 1.96596 43.9313H69.5234L73.0681 36.7201C69.3745 30.6856 62.5532 21.5253 55.7021 21.9115C51.2043 22.1529 42.5957 32.1641 42.5957 32.1641C42.5957 32.1641 32.0511 13.9068 24.2766 14.0004ZM82.3915 30.052L72.8596 49.3623H49.1191L36.9957 78.026C43.5489 79.0217 49.3277 82.4613 53.3787 87.3794H79.4723C80.9021 85.6294 82.5404 84.0906 84.3575 82.7631L92.8766 43.9313H107.443L112.298 30.052H82.3915ZM0 49.3623V73.5002L4.04213 74.5562L14.706 49.3623H0ZM20.5264 49.3623L9.27574 75.9441L16.8894 77.9657L28.983 49.3623H20.5264ZM34.8213 49.3623L22.126 79.3536L23.2281 79.6553C25.7362 78.6295 28.4468 77.9657 31.2766 77.7846L43.2808 49.3623H34.8213ZM97.166 49.3623L90.583 79.3838C93.4426 78.3277 96.5702 77.7243 99.7872 77.7243C111.791 77.7243 122.009 85.901 125.226 97.0346H140V72.7459L126.149 68.0691L121.532 49.3623H111.196H97.166ZM102.468 53.5864H116.17L119.894 68.6726H98.7447L101.962 55.6381L102.468 53.5864ZM33.0638 83.1553C21.3515 83.1553 11.9149 92.7199 11.9149 104.578C11.9149 116.435 21.3515 126 33.0638 126C44.7702 126 54.2128 116.435 54.2128 104.578C54.2128 92.7199 44.7702 83.1553 33.0638 83.1553ZM99.7872 83.1553C88.0808 83.1553 78.6383 92.7199 78.6383 104.578C78.6383 116.435 88.0808 126 99.7872 126C111.494 126 120.936 116.435 120.936 104.578C120.936 92.7199 111.494 83.1553 99.7872 83.1553ZM4.2834 92.8104L0.589787 111.517H7.45574C6.86894 109.315 6.55319 106.961 6.55319 104.578C6.55319 100.354 7.52128 96.3708 9.24596 92.8104H4.2834ZM56.8936 92.8104C58.5915 96.3708 59.5745 100.354 59.5745 104.578C59.5745 106.961 59.2468 109.315 58.6809 111.517H74.1702C73.6043 109.315 73.2766 106.961 73.2766 104.578C73.2766 100.354 74.2596 96.3708 75.9574 92.8104H56.8936ZM33.0638 94.9225C35.5919 94.9225 38.0163 95.9398 39.8039 97.7504C41.5915 99.5611 42.5957 102.017 42.5957 104.578C42.5957 107.138 41.5915 109.594 39.8039 111.405C38.0163 113.216 35.5919 114.233 33.0638 114.233C30.5358 114.233 28.1113 113.216 26.3237 111.405C24.5362 109.594 23.5319 107.138 23.5319 104.578C23.5319 102.017 24.5362 99.5611 26.3237 97.7504C28.1113 95.9398 30.5358 94.9225 33.0638 94.9225ZM99.7872 94.9225C102.315 94.9225 104.74 95.9398 106.527 97.7504C108.315 99.5611 109.319 102.017 109.319 104.578C109.319 107.138 108.315 109.594 106.527 111.405C104.74 113.216 102.315 114.233 99.7872 114.233C97.2592 114.233 94.8347 113.216 93.0471 111.405C91.2596 109.594 90.2553 107.138 90.2553 104.578C90.2553 102.017 91.2596 99.5611 93.0471 97.7504C94.8347 95.9398 97.2592 94.9225 99.7872 94.9225ZM126.209 102.466C126.268 103.16 126.298 103.854 126.298 104.578C126.298 107.806 125.732 110.884 124.689 113.78L140 107.565V102.466H126.209Z" fill="#F1892B"/>
</svg>
