<svg width="140" height="140" viewBox="0 0 140 140" fill="none" xmlns="http://www.w3.org/2000/svg">
<path d="M48.2585 98.0549C47.5996 97.0666 46.7761 95.9686 46.4467 95.5294L45.8428 94.7607H94.0467L92.5094 96.847C91.6859 98 90.5879 99.8666 89.1055 102.941H84.9879V119.357H54.9016V102.941H50.784L50.0702 101.349C49.7408 100.525 48.9173 99.0431 48.2585 98.0549Z" fill="#F1892B"/>
<path fill-rule="evenodd" clip-rule="evenodd" d="M11.2002 45.5137H128.8V86.5803H11.2002V45.5137Z" fill="#F1892B"/>
<path d="M0 102.996V98.8784V94.7607H9.27843L7.74118 96.847C6.91765 98 5.81961 99.8666 4.33725 102.941H0V102.996Z" fill="#F1892B"/>
<path d="M133.027 98.0549C132.368 97.0666 131.545 95.9686 131.215 95.5294L130.611 94.7607H140V102.996H135.607L134.894 101.404C134.509 100.525 133.631 99.0431 133.027 98.0549Z" fill="#F1892B"/>
<path fill-rule="evenodd" clip-rule="evenodd" d="M28.165 95.145C30.5807 95.1999 31.7336 95.3646 33.1062 95.8587C34.0944 96.1882 35.7964 97.1215 36.8944 97.8352C37.9925 98.6038 39.4748 99.9215 40.1336 100.745C40.7925 101.569 41.6709 102.941 42.1101 103.765C42.4944 104.588 43.0984 105.961 43.3729 106.784C43.7572 107.882 43.867 109.09 43.867 111.286C43.867 113.757 43.7572 114.69 43.2082 116.337C42.8787 117.435 42.0003 119.247 41.2866 120.29C40.6278 121.333 39.365 122.761 38.5415 123.529C37.718 124.243 36.2905 125.231 35.3023 125.725C34.314 126.22 32.5572 126.933 31.4042 127.208C30.2513 127.537 28.5493 127.757 27.6709 127.757C26.7925 127.757 25.0905 127.537 23.8827 127.208C22.7297 126.878 20.9729 126.22 19.9846 125.725C18.9964 125.231 17.5689 124.243 16.7454 123.529C15.9768 122.816 14.714 121.388 14.0003 120.29C13.2866 119.247 12.4082 117.435 12.0787 116.337C11.5297 114.69 11.4199 113.757 11.4199 111.286C11.4199 109.09 11.5297 107.882 11.914 106.784C12.1886 105.961 12.7376 104.698 13.067 103.929C13.4513 103.216 14.2748 101.898 14.8787 101.074C15.4827 100.306 16.7454 99.043 17.6238 98.3842C18.5023 97.7254 19.8748 96.9019 20.6435 96.5176C21.4121 96.1882 22.6748 95.694 23.4984 95.4744C24.5964 95.145 25.914 95.0901 28.165 95.145ZM24.2121 109.09C23.9925 109.42 23.718 110.188 23.6631 110.792C23.5533 111.451 23.6631 112.22 23.8827 112.823C24.1023 113.318 24.7611 114.141 25.3101 114.58C26.1336 115.239 26.6278 115.404 27.6709 115.404C28.5493 115.404 29.2082 115.239 29.7572 114.855C30.1415 114.525 30.7454 113.976 31.0199 113.647C31.2944 113.318 31.5689 112.439 31.6238 111.78C31.7336 110.902 31.6238 110.298 31.2944 109.584C31.0199 109.09 30.3611 108.376 29.867 107.992C29.2082 107.608 28.5493 107.388 27.6709 107.388C26.9572 107.388 26.0787 107.608 25.5846 107.937C25.0356 108.212 24.4317 108.761 24.2121 109.09Z" fill="#F1892B"/>
<path fill-rule="evenodd" clip-rule="evenodd" d="M112.934 95.145C115.349 95.1999 116.502 95.3646 117.875 95.8587C118.863 96.1882 120.565 97.1215 121.663 97.8352C122.761 98.6038 124.243 99.9215 124.902 100.745C125.561 101.569 126.439 102.941 126.879 103.765C127.263 104.588 127.867 105.961 128.141 106.784C128.526 107.882 128.636 109.09 128.636 111.286C128.636 113.757 128.526 114.69 127.977 116.337C127.647 117.435 126.769 119.247 126.055 120.29C125.396 121.333 124.134 122.761 123.31 123.529C122.487 124.243 121.059 125.231 120.071 125.725C119.083 126.22 117.326 126.933 116.173 127.208C115.02 127.537 113.318 127.757 112.439 127.757C111.561 127.757 109.859 127.537 108.651 127.208C107.498 126.878 105.741 126.22 104.753 125.725C103.765 125.231 102.337 124.243 101.514 123.529C100.745 122.816 99.4826 121.388 98.7689 120.29C98.0551 119.247 97.1767 117.435 96.8473 116.337C96.2983 114.69 96.1885 113.757 96.1885 111.286C96.1885 109.09 96.2983 107.882 96.6826 106.784C96.9571 105.961 97.5061 104.698 97.8355 103.929C98.2198 103.216 99.0434 101.898 99.6473 101.074C100.251 100.306 101.514 99.043 102.392 98.3842C103.271 97.7254 104.643 96.9019 105.412 96.5176C106.181 96.1882 107.443 95.694 108.267 95.4744C109.365 95.145 110.683 95.0901 112.934 95.145ZM108.981 109.09C108.761 109.42 108.487 110.188 108.432 110.792C108.322 111.451 108.432 112.22 108.651 112.823C108.871 113.318 109.53 114.141 110.079 114.58C110.902 115.239 111.396 115.404 112.439 115.404C113.318 115.404 113.977 115.239 114.526 114.855C114.91 114.525 115.514 113.976 115.788 113.647C116.063 113.318 116.337 112.439 116.392 111.78C116.502 110.902 116.392 110.298 116.063 109.584C115.788 109.09 115.13 108.376 114.636 107.992C113.977 107.608 113.318 107.388 112.439 107.388C111.726 107.388 110.847 107.608 110.353 107.937C109.804 108.212 109.2 108.761 108.981 109.09Z" fill="#F1892B"/>
<path d="M62.5879 14.1646C63.6859 13.6156 65.5526 12.9019 66.7056 12.6274C67.8585 12.3529 69.2859 12.1333 69.835 12.0784C70.384 12.0784 71.9212 12.298 73.184 12.5725C74.4467 12.847 76.4232 13.5607 77.4663 14.1097C78.5644 14.6588 80.1565 15.7568 81.035 16.6352C81.9134 17.4588 82.8467 18.5568 83.1761 19.0509C83.6703 19.8744 83.7252 19.8744 84.5487 19.6548C85.0428 19.545 86.3056 19.3254 87.3487 19.2156C88.7212 19.1058 89.8742 19.1607 91.4663 19.4901C92.6742 19.7646 94.431 20.3686 95.4193 20.8627C96.4075 21.3568 97.9448 22.4548 98.8232 23.3333C99.7016 24.2117 100.8 25.4195 101.129 26.0784C101.678 27.0117 101.953 27.2313 102.611 27.2313C103.051 27.2313 104.204 27.396 105.137 27.6156C106.07 27.8352 107.498 28.3293 108.266 28.7137C109.035 29.098 110.298 29.8666 110.957 30.4156C111.615 30.9646 112.713 32.0078 113.317 32.7764C113.921 33.545 114.745 34.7529 115.129 35.5215C115.513 36.2901 116.008 37.5529 116.227 38.3764C116.392 38.9803 116.557 39.749 116.611 40.6823H23.333C23.333 40.1333 23.5526 39.145 23.7173 38.3764C23.9369 37.5529 24.431 36.2901 24.8154 35.5215C25.1997 34.8078 26.0232 33.545 26.6271 32.7764C27.231 32.0627 28.3291 30.9646 28.9879 30.4156C29.6467 29.8666 30.9095 29.098 31.6781 28.7137C32.4467 28.3293 33.8742 27.8352 34.8075 27.6156C35.7409 27.396 36.8938 27.2313 37.333 27.2313C37.9918 27.2313 38.2663 27.0666 38.8154 26.0784C39.1448 25.4195 40.2428 24.2117 41.1212 23.3333C41.9997 22.4548 43.5369 21.3568 44.5252 20.8627C45.5134 20.3686 47.2703 19.7646 48.4781 19.4901C50.0703 19.1607 51.1683 19.0509 52.5958 19.2156C53.6389 19.2705 54.9016 19.4901 55.3958 19.6548C56.2193 19.8744 56.3291 19.8744 56.8232 19.0509C57.0977 18.6117 58.0859 17.5137 58.9644 16.6352C59.9526 15.8666 61.4899 14.7137 62.5879 14.1646Z" fill="#F1892B"/>
</svg>
