<svg width="140" height="140" viewBox="0 0 140 140" fill="none" xmlns="http://www.w3.org/2000/svg">
<path d="M108.182 76.375H73.1816V121H108.182V76.375Z" fill="#F1892B"/>
<path d="M66.8184 76.375H31.8184V121H66.8184V76.375Z" fill="#F1892B"/>
<path d="M70 19C51.4413 19.0211 33.6488 26.416 20.5258 39.5624C7.40279 52.7089 0.0210541 70.5332 5.73466e-07 89.125V117.812C-0.0002504 118.231 0.0818788 118.646 0.241691 119.033C0.401504 119.419 0.635864 119.771 0.931374 120.067C1.22688 120.363 1.57774 120.598 1.96389 120.758C2.35004 120.918 2.76391 121 3.18182 121H25.4545V73.1875C25.4543 72.7688 25.5364 72.3542 25.6962 71.9674C25.8561 71.5806 26.0904 71.2291 26.3859 70.933C26.6814 70.637 27.0323 70.4022 27.4184 70.2421C27.8046 70.082 28.2185 69.9997 28.6364 70H111.364C111.782 69.9997 112.195 70.082 112.582 70.2421C112.968 70.4022 113.319 70.637 113.614 70.933C113.91 71.2291 114.144 71.5806 114.304 71.9674C114.464 72.3542 114.546 72.7688 114.545 73.1875V121H136.818C137.236 121 137.65 120.918 138.036 120.758C138.422 120.598 138.773 120.363 139.069 120.067C139.364 119.771 139.599 119.419 139.758 119.033C139.918 118.646 140 118.231 140 117.812V89.125C139.979 70.5332 132.597 52.7089 119.474 39.5624C106.351 26.416 88.5587 19.0211 70 19ZM54.0909 38.125H85.9091C86.753 38.125 87.5623 38.4608 88.159 39.0586C88.7557 39.6564 89.0909 40.4671 89.0909 41.3125C89.0909 42.1579 88.7557 42.9686 88.159 43.5664C87.5623 44.1642 86.753 44.5 85.9091 44.5H54.0909C53.247 44.5 52.4377 44.1642 51.841 43.5664C51.2443 42.9686 50.9091 42.1579 50.9091 41.3125C50.9091 40.4671 51.2443 39.6564 51.841 39.0586C52.4377 38.4608 53.247 38.125 54.0909 38.125ZM92.2727 57.25H47.7273C46.8834 57.25 46.0741 56.9142 45.4774 56.3164C44.8807 55.7186 44.5455 54.9079 44.5455 54.0625C44.5455 53.2171 44.8807 52.4064 45.4774 51.8086C46.0741 51.2108 46.8834 50.875 47.7273 50.875H92.2727C93.1166 50.875 93.9259 51.2108 94.5226 51.8086C95.1193 52.4064 95.4545 53.2171 95.4545 54.0625C95.4545 54.9079 95.1193 55.7186 94.5226 56.3164C93.9259 56.9142 93.1166 57.25 92.2727 57.25Z" fill="#F1892B"/>
</svg>
