<svg width="140" height="140" viewBox="0 0 140 140" fill="none" xmlns="http://www.w3.org/2000/svg">
<g clip-path="url(#clip0_30_664)">
<path d="M51.1415 71.4023C50.1685 72.6615 48.2511 72.6615 47.2781 71.4023L31.4238 51.2553C30.1646 49.6527 31.3093 47.2774 33.3698 47.2774H39.6085V18.2589C39.6085 17.3717 40.324 16.6562 41.2111 16.6562H57.2372C58.1243 16.6562 58.8398 17.3717 58.8398 18.2589V47.2774H65.0785C67.139 47.2774 68.2837 49.6527 67.0245 51.2553L51.1415 71.4023Z" fill="#F1892B"/>
<path d="M4.37968 92.8943V46.9911C4.37968 44.7875 6.18262 42.9846 8.3862 42.9846H15.5979C17.8015 42.9846 19.6044 44.7875 19.6044 46.9911V73.8061C19.6044 77.9271 22.9527 81.2754 27.0737 81.2754H71.317C75.438 81.2754 78.7863 77.9271 78.7863 73.8061V46.3902C78.7863 44.5014 80.303 42.9846 82.1918 42.9846H89.6038C93.0952 42.9846 96.1001 44.7303 97.9889 47.2487C98.1606 47.4204 98.3037 47.7352 98.4754 47.8783L110.667 66.251L124.46 67.3957C130.155 67.3957 134.763 72.0032 134.763 77.6982V92.7512C137.625 93.066 140 95.613 140 98.6178V106.059C140 109.235 137.453 111.925 134.133 111.925H126.836C124.947 118.421 118.909 123.344 111.64 123.344C104.342 123.344 98.3323 118.593 96.4435 111.925H63.8191H44.6451C42.7563 118.421 36.7179 123.344 29.449 123.344C22.18 123.344 16.1416 118.593 14.2529 111.925H5.86781C2.69122 111.925 0.00114441 109.378 0.00114441 106.059V98.6178C-0.0560913 95.8991 1.86131 93.5239 4.37968 92.8943ZM111.64 115.388C115.904 115.388 119.567 111.753 119.567 107.461C119.567 103.168 116.075 99.5336 111.64 99.5336C107.376 99.5336 103.712 103.168 103.712 107.461C103.712 111.753 107.204 115.388 111.64 115.388ZM29.4204 115.388C33.8561 115.388 37.3475 111.753 37.3475 107.461C37.3475 103.168 33.8561 99.5336 29.4204 99.5336C25.1563 99.5336 21.4932 103.168 21.4932 107.461C21.4932 111.753 24.9846 115.388 29.4204 115.388Z" fill="#F1892B"/>
</g>
<defs>
<clipPath id="clip0_30_664">
<rect width="140" height="140" fill="white" transform="matrix(-1 0 0 1 140 0)"/>
</clipPath>
</defs>
</svg>
