<svg width="56" height="50" viewBox="0 0 56 50" fill="none" xmlns="http://www.w3.org/2000/svg">
<path fill-rule="evenodd" clip-rule="evenodd" d="M21.0368 4.0371C21.7062 2.85063 22.6815 1.86697 23.8641 1.18498C27.5041 -0.913974 32.1862 0.32809 34.2899 3.95561C41.014 15.5503 47.5517 26.8229 54.32 38.4936C55.0967 39.7106 55.5086 41.1207 55.5086 42.5655C55.5086 46.7604 52.0889 50.1647 47.8756 50.1647C34.3888 50.1647 21.013 50.1643 7.498 50.1639C6.15469 50.1639 4.83798 49.8058 3.67604 49.1358C0.0399125 47.039 -1.20469 42.3884 0.895376 38.7662C7.62149 27.1684 14.298 15.6564 21.0368 4.0371ZM37.7813 30.5289L43.2016 39.875H34.7504L31.6297 45.2563H47.8756C49.3678 45.2563 50.5783 44.0517 50.5783 42.5655C50.5783 42.0079 50.4077 41.4901 50.1156 41.0602L39.3342 22.4695C33.6451 22.4695 27.9558 22.4695 22.2667 22.4695L27.6871 13.1238L31.9124 20.4098H38.1391L30.0201 6.40961C29.2739 5.12691 27.6239 4.68937 26.3353 5.43222C25.902 5.68233 25.5649 6.03435 25.336 6.43994L14.4796 25.1595C17.3245 30.0642 20.1683 34.97 23.0131 39.875H12.1724L16.3979 32.5888L13.285 27.2194L5.16538 41.2204C4.41898 42.5029 4.8585 44.1453 6.14718 44.8885C6.57328 45.134 7.03879 45.2561 7.49841 45.2557L29.2402 45.2563C32.0928 40.3378 34.938 35.4312 37.7813 30.5289Z" fill="#F1892B"/>
</svg>
