<svg width="300" height="78" viewBox="0 0 300 78" fill="none" xmlns="http://www.w3.org/2000/svg">
<g clip-path="url(#clip0_0_60)">
<path fill-rule="evenodd" clip-rule="evenodd" d="M32.8699 6.29784C33.9159 4.44696 35.4398 2.91245 37.2877 1.84854C42.9752 -1.42582 50.291 0.511795 53.578 6.17073C64.0844 24.2584 74.2995 41.8437 84.875 60.05C86.0886 61.9485 86.7321 64.1482 86.7321 66.4022C86.7321 72.9462 81.389 78.2569 74.8056 78.2569C53.7326 78.2569 32.8328 78.2563 11.7156 78.2557C9.61672 78.2557 7.55936 77.6971 5.74383 76.6518C0.0623786 73.3809 -1.88232 66.1259 1.39904 60.4752C11.9086 42.3827 22.3407 24.424 32.8699 6.29784ZM59.0332 47.625L67.5026 62.2049H54.2975L49.4214 70.5998H74.8056C77.1372 70.5998 79.0286 68.7206 79.0286 66.4022C79.0286 65.5323 78.762 64.7245 78.3056 64.0539L61.4597 35.0524C52.5705 35.0524 43.681 35.0524 34.7918 35.0524L43.2611 20.4731L49.8632 31.8392H59.5924L46.9065 9.99897C45.7405 7.99795 43.1624 7.31539 41.1489 8.47424C40.472 8.86441 39.9452 9.41356 39.5875 10.0463L22.6244 39.2487C27.0695 46.9002 31.513 54.5532 35.958 62.2049H19.0194L25.6218 50.8385L20.7578 42.4622L8.07092 64.3037C6.90468 66.3044 7.59141 68.8666 9.60498 70.0261C10.2708 70.409 10.9981 70.5995 11.7163 70.5989L45.6879 70.5998C50.145 62.9269 54.5907 55.2727 59.0332 47.625Z" fill="#F1892B"/>
<path d="M123.446 21.2125L117.436 37.8868C116.964 39.1864 116.407 40.1266 115.767 40.707C115.127 41.288 114.056 41.5782 112.553 41.5782C111.024 41.5782 109.938 41.288 109.298 40.707C108.659 40.1266 108.102 39.1864 107.629 37.8868L101.662 21.2125C101.411 20.5485 101.203 20.217 101.036 20.217C100.758 20.217 100.618 20.5211 100.618 21.1295L100.827 41.2464H93.3153V16.3595C93.3153 15.4466 93.5102 14.6726 93.8995 14.0364C94.2889 13.4005 94.811 12.9375 95.4644 12.647C96.1181 12.3565 96.7439 12.1562 97.3424 12.0455C97.9406 11.9351 98.5737 11.8799 99.2411 11.8799C102.441 11.8799 104.555 13.304 105.585 16.1516L111.719 32.9092C111.997 33.7113 112.275 34.1119 112.553 34.1119C112.832 34.1119 113.11 33.7113 113.388 32.9092L119.523 16.1516C120.552 13.304 122.653 11.8799 125.824 11.8799C129.803 11.8799 131.792 13.3731 131.792 16.3595V41.2464H124.281L124.531 21.1295C124.531 20.5211 124.378 20.217 124.072 20.217C123.905 20.217 123.696 20.5485 123.446 21.2125ZM143.769 12.5019C145.633 12.0871 148.067 11.8799 151.072 11.8799C154.077 11.8799 156.511 12.0871 158.375 12.5019C160.239 12.9163 161.818 13.6771 163.112 14.783C164.406 15.8892 165.31 17.3959 165.824 19.3042C166.339 21.2125 166.597 23.6873 166.597 26.7292C166.597 29.7705 166.339 32.2456 165.824 34.1535C165.31 36.0618 164.406 37.5755 163.112 38.6956C161.818 39.8156 160.239 40.5758 158.375 40.977C156.511 41.3779 154.077 41.5782 151.072 41.5782C148.067 41.5782 145.633 41.3779 143.769 40.977C141.905 40.5758 140.326 39.8156 139.033 38.6956C137.739 37.5755 136.835 36.0618 136.32 34.1535C135.805 32.2456 135.548 29.7705 135.548 26.7292C135.548 23.6873 135.805 21.2125 136.32 19.3042C136.835 17.3959 137.739 15.8892 139.033 14.783C140.326 13.6771 141.905 12.9163 143.769 12.5019ZM144.875 19.6152C143.776 20.9012 143.227 23.2725 143.227 26.7292C143.227 30.1855 143.776 32.5566 144.875 33.8425C145.974 35.1285 148.04 35.7713 151.072 35.7713C154.105 35.7713 156.17 35.1285 157.27 33.8425C158.368 32.5566 158.918 30.1855 158.918 26.7292C158.918 23.2725 158.368 20.9012 157.27 19.6152C156.17 18.3293 154.105 17.6864 151.072 17.6864C148.04 17.6864 145.974 18.3293 144.875 19.6152ZM198.188 12.2114V41.2464H190.676V29.1346H177.864V41.2464H170.353V12.2114H177.864V23.3277H190.676V12.2114H198.188ZM232.575 41.2464H224.98L225.314 21.7102C225.314 21.0188 225.175 20.6731 224.896 20.6731C224.84 20.6731 224.792 20.6798 224.75 20.694C224.708 20.7078 224.667 20.7422 224.625 20.7974C224.583 20.8529 224.541 20.9012 224.5 20.9428C224.458 20.9841 224.409 21.0532 224.354 21.1501C224.298 21.2466 224.249 21.3298 224.207 21.3989C224.166 21.468 224.103 21.5721 224.02 21.7102C223.936 21.8484 223.867 21.9591 223.811 22.0417L213.628 38.7577C213.295 39.3109 212.961 39.7601 212.627 40.1061C212.293 40.4515 211.737 40.7836 210.957 41.1016C210.179 41.4195 209.247 41.5782 208.162 41.5782C206.993 41.5782 206.019 41.3984 205.24 41.0391C204.461 40.6795 203.912 40.1752 203.592 39.5251C203.272 38.8753 203.056 38.26 202.945 37.6796C202.834 37.0986 202.778 36.4072 202.778 35.6054V12.2114H210.373L210.04 31.3744C210.04 32.2872 210.206 32.7433 210.54 32.7433C210.596 32.7433 210.652 32.7294 210.707 32.702C210.763 32.6742 210.818 32.6256 210.874 32.5566C210.93 32.4875 210.979 32.4253 211.02 32.3698C211.062 32.3146 211.124 32.2181 211.208 32.08C211.292 31.9412 211.347 31.8447 211.375 31.7895L221.265 15.1978C222.601 12.9861 224.465 11.8799 226.858 11.8799C230.669 11.8799 232.575 13.9534 232.575 18.1015V41.2464ZM265.001 12.2114V41.2464H257.489V29.1346H244.677V41.2464H237.166V12.2114H244.677V23.3277H257.489V12.2114H265.001ZM276.978 12.5019C278.842 12.0871 281.276 11.8799 284.281 11.8799C287.285 11.8799 289.72 12.0871 291.584 12.5019C293.448 12.9163 295.027 13.6771 296.321 14.783C297.615 15.8892 298.518 17.3959 299.033 19.3042C299.547 21.2125 299.805 23.6873 299.805 26.7292C299.805 29.7705 299.547 32.2456 299.033 34.1535C298.518 36.0618 297.615 37.5755 296.321 38.6956C295.027 39.8156 293.448 40.5758 291.584 40.977C289.72 41.3779 287.285 41.5782 284.281 41.5782C281.276 41.5782 278.842 41.3779 276.978 40.977C275.114 40.5758 273.535 39.8156 272.241 38.6956C270.947 37.5755 270.043 36.0618 269.529 34.1535C269.014 32.2456 268.756 29.7705 268.756 26.7292C268.756 23.6873 269.014 21.2125 269.529 19.3042C270.043 17.3959 270.947 15.8892 272.241 14.783C273.535 13.6771 275.114 12.9163 276.978 12.5019ZM278.083 19.6152C276.985 20.9012 276.435 23.2725 276.435 26.7292C276.435 30.1855 276.985 32.5566 278.083 33.8425C279.183 35.1285 281.248 35.7713 284.281 35.7713C287.313 35.7713 289.379 35.1285 290.478 33.8425C291.577 32.5566 292.127 30.1855 292.127 26.7292C292.127 23.2725 291.577 20.9012 290.478 19.6152C289.379 18.3293 287.313 17.6864 284.281 17.6864C281.248 17.6864 279.183 18.3293 278.083 19.6152Z" fill="#2B2A29"/>
<path d="M98.8441 67.0363H93.3146V48.9612C93.3146 46.763 94.4 45.6638 96.5706 45.6638H110.394C112.565 45.6638 113.65 46.763 113.65 48.9612V67.0363H108.121V51.3735C108.121 50.8439 108.013 50.4727 107.798 50.2588C107.583 50.0453 107.21 49.9381 106.677 49.9381H100.288C99.7555 49.9381 99.3813 50.0453 99.1665 50.2588C98.9517 50.4727 98.8441 50.8439 98.8441 51.3735V67.0363ZM135.061 45.6638V49.8163H124.003C123.47 49.8163 123.096 49.9229 122.881 50.1368C122.666 50.3503 122.559 50.7222 122.559 51.2511V54.2129H134.785V58.1822H122.559V61.449C122.559 61.9782 122.666 62.3498 122.881 62.5633C123.096 62.7772 123.47 62.8838 124.003 62.8838H135.184V67.0363H120.286C118.115 67.0363 117.03 65.9472 117.03 63.7695V48.9612C117.03 46.763 118.115 45.6638 120.286 45.6638H135.061ZM143.478 67.0363H137.949V48.9612C137.949 46.763 139.034 45.6638 141.205 45.6638H152.632C153.8 45.6638 154.772 45.8319 155.55 46.1675C156.329 46.5035 156.923 47.0125 157.332 47.6942C157.742 48.3761 158.029 49.1293 158.192 49.9538C158.356 50.778 158.438 51.7599 158.438 52.8998C158.438 55.2813 158.023 57.093 157.194 58.3348C156.365 59.5763 154.844 60.1974 152.632 60.1974H143.478V67.0363ZM143.478 55.9225H149.775C150.902 55.9225 151.685 55.6935 152.126 55.2355C152.566 54.7775 152.786 53.9991 152.786 52.8998C152.786 51.8214 152.566 51.0578 152.126 50.6099C151.685 50.162 150.902 49.9381 149.775 49.9381H144.922C144.39 49.9381 144.015 50.0453 143.801 50.2588C143.585 50.4727 143.478 50.8439 143.478 51.3735V55.9225ZM179.081 45.6638V49.8163H168.022C167.49 49.8163 167.116 49.9229 166.901 50.1368C166.686 50.3503 166.579 50.7222 166.579 51.2511V54.2129H178.805V58.1822H166.579V61.449C166.579 61.9782 166.686 62.3498 166.901 62.5633C167.116 62.7772 167.49 62.8838 168.022 62.8838H179.204V67.0363H164.305C162.135 67.0363 161.049 65.9472 161.049 63.7695V48.9612C161.049 46.763 162.135 45.6638 164.305 45.6638H179.081ZM187.498 58.243V61.3575C187.498 61.9678 187.6 62.375 187.805 62.5788C188.01 62.7822 188.419 62.8838 189.034 62.8838H194.163C195.003 62.8838 195.608 62.7056 195.976 62.3498C196.345 61.9934 196.529 61.3982 196.529 60.5636C196.529 59.729 196.35 59.1335 195.991 58.7777C195.633 58.4213 195.065 58.243 194.287 58.243H187.498ZM187.498 51.1903V54.2738H194.133C194.891 54.2738 195.433 54.106 195.761 53.7701C196.089 53.4345 196.253 52.8491 196.253 52.0145C196.253 51.2411 196.084 50.6815 195.746 50.3352C195.408 49.9895 194.86 49.8163 194.102 49.8163H188.88C188.348 49.8163 187.984 49.9128 187.79 50.1062C187.595 50.2995 187.498 50.661 187.498 51.1903ZM198.649 56.1972C199.959 56.3805 200.876 56.8792 201.398 57.6936C201.92 58.5077 202.181 59.6476 202.181 61.1134C202.181 63.0876 201.792 64.5681 201.014 65.5557C200.236 66.5427 198.823 67.0363 196.775 67.0363H185.224C183.054 67.0363 181.968 65.9472 181.968 63.7695V48.9612C181.968 46.763 183.054 45.6638 185.224 45.6638H196.468C198.311 45.6638 199.657 46.1423 200.507 47.0987C201.357 48.0553 201.782 49.5517 201.782 51.5868C201.782 54.2331 200.738 55.7292 198.649 56.0755V56.1972ZM202.796 67.0363L210.813 47.9232C211.182 47.0277 211.668 46.3864 212.272 45.9994C212.876 45.613 213.803 45.4197 215.052 45.4197C216.117 45.4197 216.983 45.5928 217.648 45.9385C218.314 46.2849 218.851 46.9463 219.261 47.9232L227.309 67.0363H221.503L219.568 62.1511H210.506L208.571 67.0363H202.796ZM214.592 51.2206L211.857 57.9989H218.216L215.482 51.2206C215.319 50.773 215.175 50.549 215.052 50.549C214.909 50.549 214.755 50.773 214.592 51.2206ZM227.616 67.0363L235.88 47.5264C236.473 46.1218 237.794 45.4197 239.842 45.4197C241.89 45.4197 243.211 46.1218 243.805 47.5264L252.068 67.0363H246.232L240.241 51.4344C240.241 51.4142 240.221 51.3581 240.18 51.2663C240.139 51.1748 240.109 51.1086 240.088 51.0679C240.068 51.0272 240.036 50.9865 239.996 50.9458C239.955 50.9054 239.904 50.8849 239.842 50.8849C239.719 50.8849 239.576 51.0679 239.412 51.4344L233.452 67.0363H227.616ZM275.291 67.0363H268.502L260.638 58.8234C260.024 58.1718 259.717 57.2558 259.717 56.0755C259.717 55.1595 260.004 54.3653 260.577 53.6941L267.55 45.6638H274.185L265.799 54.4571C265.246 55.0065 264.97 55.5361 264.97 56.0449C264.97 56.5335 265.328 57.1337 266.045 57.8459L275.291 67.0363ZM253.143 67.0363V45.6638H258.673V67.0363H253.143ZM275.291 67.0363L283.309 47.9232C283.678 47.0277 284.164 46.3864 284.768 45.9994C285.372 45.613 286.299 45.4197 287.548 45.4197C288.613 45.4197 289.478 45.5928 290.144 45.9385C290.81 46.2849 291.347 46.9463 291.757 47.9232L299.805 67.0363H293.999L292.064 62.1511H283.002L281.066 67.0363H275.291ZM287.087 51.2206L284.353 57.9989H290.712L287.978 51.2206C287.815 50.773 287.671 50.549 287.548 50.549C287.405 50.549 287.251 50.773 287.087 51.2206Z" fill="#F1892B"/>
</g>
<defs>
<clipPath id="clip0_0_60">
<rect width="300" height="78" fill="white"/>
</clipPath>
</defs>
</svg>
