<svg width="192" height="50" viewBox="0 0 192 50" fill="none" xmlns="http://www.w3.org/2000/svg">
<g clip-path="url(#clip0_3_259)">
<path fill-rule="evenodd" clip-rule="evenodd" d="M21.0368 4.0371C21.7062 2.85063 22.6815 1.86697 23.8641 1.18498C27.5041 -0.913974 32.1862 0.32809 34.2899 3.95561C41.014 15.5503 47.5517 26.8229 54.32 38.4936C55.0967 39.7106 55.5086 41.1207 55.5086 42.5655C55.5086 46.7604 52.0889 50.1647 47.8756 50.1647C34.3888 50.1647 21.013 50.1643 7.498 50.1639C6.15469 50.1639 4.83798 49.8058 3.67604 49.1358C0.0399125 47.039 -1.20469 42.3884 0.895376 38.7662C7.62149 27.1684 14.298 15.6564 21.0368 4.0371ZM37.7813 30.5289L43.2016 39.875H34.7504L31.6297 45.2563H47.8756C49.3678 45.2563 50.5783 44.0517 50.5783 42.5655C50.5783 42.0079 50.4077 41.4901 50.1156 41.0602L39.3342 22.4695C33.6451 22.4695 27.9558 22.4695 22.2667 22.4695L27.6871 13.1238L31.9124 20.4098H38.1391L30.0201 6.40961C29.2739 5.12691 27.6239 4.68937 26.3353 5.43222C25.902 5.68233 25.5649 6.03435 25.336 6.43994L14.4796 25.1595C17.3245 30.0642 20.1683 34.97 23.0131 39.875H12.1724L16.3979 32.5888L13.285 27.2194L5.16538 41.2204C4.41898 42.5029 4.8585 44.1453 6.14718 44.8885C6.57328 45.134 7.03879 45.2561 7.49841 45.2557L29.2402 45.2563C32.0928 40.3378 34.938 35.4312 37.7813 30.5289Z" fill="#F1892B"/>
<path d="M79.0055 13.5978L75.1594 24.2865C74.857 25.1195 74.5007 25.7222 74.0913 26.0943C73.6816 26.4667 72.9959 26.6527 72.0345 26.6527C71.0553 26.6527 70.3607 26.4667 69.9513 26.0943C69.5418 25.7222 69.1858 25.1195 68.8829 24.2865L65.0636 13.5978C64.9034 13.1722 64.7699 12.9597 64.6631 12.9597C64.4852 12.9597 64.3958 13.1546 64.3958 13.5446L64.5297 26.44H59.722V10.4869C59.722 9.90174 59.8467 9.40556 60.096 8.99774C60.3452 8.59012 60.6793 8.29331 61.0974 8.10709C61.5158 7.92087 61.9164 7.79248 62.2994 7.72151C62.6822 7.65074 63.0874 7.61536 63.5146 7.61536C65.5624 7.61536 66.9153 8.52825 67.5744 10.3536L71.5005 21.0957C71.6784 21.6099 71.8565 21.8666 72.0345 21.8666C72.2128 21.8666 72.3907 21.6099 72.5688 21.0957L76.495 10.3536C77.1536 8.52825 78.4982 7.61536 80.5278 7.61536C83.0743 7.61536 84.3473 8.57253 84.3473 10.4869V26.44H79.5399L79.7001 13.5446C79.7001 13.1546 79.602 12.9597 79.406 12.9597C79.2994 12.9597 79.1658 13.1722 79.0055 13.5978ZM92.0126 8.01408C93.2056 7.7482 94.7634 7.61536 96.6863 7.61536C98.6093 7.61536 100.167 7.7482 101.36 8.01408C102.553 8.27976 103.564 8.76744 104.392 9.47633C105.22 10.1854 105.798 11.1513 106.128 12.3745C106.457 13.5978 106.622 15.1842 106.622 17.1341C106.622 19.0837 106.457 20.6703 106.128 21.8933C105.798 23.1166 105.22 24.0869 104.392 24.8049C103.564 25.5229 102.553 26.0102 101.36 26.2673C100.167 26.5243 98.6093 26.6527 96.6863 26.6527C94.7634 26.6527 93.2056 26.5243 92.0126 26.2673C90.8195 26.0102 89.8091 25.5229 88.9811 24.8049C88.153 24.0869 87.5744 23.1166 87.2451 21.8933C86.9155 20.6703 86.7508 19.0837 86.7508 17.1341C86.7508 15.1842 86.9155 13.5978 87.2451 12.3745C87.5744 11.1513 88.153 10.1854 88.9811 9.47633C89.8091 8.76744 90.8195 8.27976 92.0126 8.01408ZM92.7202 12.5739C92.017 13.3982 91.6652 14.9183 91.6652 17.1341C91.6652 19.3498 92.017 20.8696 92.7202 21.694C93.4235 22.5183 94.7457 22.9304 96.6863 22.9304C98.6274 22.9304 99.9493 22.5183 100.653 21.694C101.356 20.8696 101.708 19.3498 101.708 17.1341C101.708 14.9183 101.356 13.3982 100.653 12.5739C99.9493 11.7496 98.6274 11.3375 96.6863 11.3375C94.7457 11.3375 93.4235 11.7496 92.7202 12.5739ZM126.841 7.82786V26.44H122.033V18.6761H113.833V26.44H109.026V7.82786H113.833V14.9537H122.033V7.82786H126.841ZM148.848 26.44H143.987L144.201 13.9169C144.201 13.4737 144.112 13.2521 143.934 13.2521C143.898 13.2521 143.867 13.2563 143.84 13.2654C143.813 13.2743 143.787 13.2963 143.76 13.3317C143.733 13.3673 143.707 13.3982 143.68 13.4249C143.653 13.4514 143.622 13.4957 143.587 13.5578C143.551 13.6196 143.52 13.673 143.493 13.7173C143.466 13.7616 143.426 13.8283 143.373 13.9169C143.319 14.0054 143.275 14.0764 143.239 14.1294L136.722 24.8447C136.509 25.1994 136.295 25.4873 136.081 25.7091C135.868 25.9305 135.512 26.1434 135.013 26.3472C134.515 26.551 133.918 26.6527 133.224 26.6527C132.476 26.6527 131.852 26.5375 131.354 26.3072C130.856 26.0767 130.504 25.7534 130.299 25.3367C130.094 24.9201 129.956 24.5257 129.885 24.1536C129.814 23.7812 129.778 23.338 129.778 22.824V7.82786H134.639L134.426 20.1118C134.426 20.697 134.532 20.9893 134.746 20.9893C134.782 20.9893 134.817 20.9804 134.853 20.9628C134.888 20.9451 134.924 20.9139 134.96 20.8696C134.995 20.8254 135.027 20.7855 135.053 20.7499C135.08 20.7146 135.12 20.6527 135.173 20.5641C135.227 20.4752 135.262 20.4133 135.28 20.3779L141.61 9.74221C142.465 8.32444 143.658 7.61536 145.189 7.61536C147.628 7.61536 148.848 8.94457 148.848 11.6036V26.44ZM169.601 7.82786V26.44H164.793V18.6761H156.594V26.44H151.786V7.82786H156.594V14.9537H164.793V7.82786H169.601ZM177.266 8.01408C178.459 7.7482 180.017 7.61536 181.94 7.61536C183.863 7.61536 185.421 7.7482 186.614 8.01408C187.807 8.27976 188.817 8.76744 189.645 9.47633C190.474 10.1854 191.052 11.1513 191.381 12.3745C191.711 13.5978 191.876 15.1842 191.876 17.1341C191.876 19.0837 191.711 20.6703 191.381 21.8933C191.052 23.1166 190.474 24.0869 189.645 24.8049C188.817 25.5229 187.807 26.0102 186.614 26.2673C185.421 26.5243 183.863 26.6527 181.94 26.6527C180.017 26.6527 178.459 26.5243 177.266 26.2673C176.073 26.0102 175.063 25.5229 174.235 24.8049C173.406 24.0869 172.828 23.1166 172.499 21.8933C172.169 20.6703 172.004 19.0837 172.004 17.1341C172.004 15.1842 172.169 13.5978 172.499 12.3745C172.828 11.1513 173.406 10.1854 174.235 9.47633C175.063 8.76744 176.073 8.27976 177.266 8.01408ZM177.974 12.5739C177.27 13.3982 176.919 14.9183 176.919 17.1341C176.919 19.3498 177.27 20.8696 177.974 21.694C178.677 22.5183 179.999 22.9304 181.94 22.9304C183.881 22.9304 185.203 22.5183 185.906 21.694C186.61 20.8696 186.961 19.3498 186.961 17.1341C186.961 14.9183 186.61 13.3982 185.906 12.5739C185.203 11.7496 183.881 11.3375 181.94 11.3375C179.999 11.3375 178.677 11.7496 177.974 12.5739Z" fill="white"/>
<path d="M63.2602 42.972H59.7214V31.3854C59.7214 29.9764 60.416 29.2717 61.8052 29.2717H70.6523C72.0417 29.2717 72.7361 29.9764 72.7361 31.3854V42.972H69.1975V32.9318C69.1975 32.5923 69.1286 32.3543 68.9909 32.2173C68.8534 32.0804 68.6142 32.0116 68.2736 32.0116H64.1841C63.8435 32.0116 63.6041 32.0804 63.4666 32.2173C63.3291 32.3543 63.2602 32.5923 63.2602 32.9318V42.972ZM86.4392 29.2717V31.9336H79.3617C79.0209 31.9336 78.7816 32.0019 78.6441 32.139C78.5064 32.2759 78.4376 32.5143 78.4376 32.8534V34.7519H86.2623V37.2963H78.4376V39.3904C78.4376 39.7297 78.5064 39.9679 78.6441 40.1048C78.7816 40.2418 79.0209 40.3102 79.3617 40.3102H86.5178V42.972H76.9828C75.5934 42.972 74.8989 42.2739 74.8989 40.8779V31.3854C74.8989 29.9764 75.5934 29.2717 76.9828 29.2717H86.4392ZM91.826 42.972H88.2872V31.3854C88.2872 29.9764 88.9818 29.2717 90.371 29.2717H97.6847C98.4317 29.2717 99.0542 29.3795 99.5522 29.5946C100.05 29.81 100.43 30.1363 100.693 30.5732C100.955 31.0104 101.138 31.4932 101.243 32.0217C101.348 32.5501 101.4 33.1795 101.4 33.9102C101.4 35.4368 101.135 36.5981 100.604 37.3942C100.073 38.19 99.1001 38.5881 97.6847 38.5881H91.826V42.972ZM91.826 35.8478H95.8562C96.5772 35.8478 97.0784 35.701 97.3604 35.4074C97.6421 35.1139 97.783 34.6149 97.783 33.9102C97.783 33.2189 97.6421 32.7294 97.3604 32.4423C97.0784 32.1552 96.5772 32.0116 95.8562 32.0116H92.75C92.4094 32.0116 92.1699 32.0804 92.0324 32.2173C91.8947 32.3543 91.826 32.5923 91.826 32.9318V35.8478ZM114.612 29.2717V31.9336H107.534C107.194 31.9336 106.954 32.0019 106.817 32.139C106.679 32.2759 106.61 32.5143 106.61 32.8534V34.7519H114.435V37.2963H106.61V39.3904C106.61 39.7297 106.679 39.9679 106.817 40.1048C106.954 40.2418 107.194 40.3102 107.534 40.3102H114.691V42.972H105.155C103.766 42.972 103.072 42.2739 103.072 40.8779V31.3854C103.072 29.9764 103.766 29.2717 105.155 29.2717H114.612ZM119.999 37.3353V39.3318C119.999 39.723 120.064 39.9841 120.195 40.1147C120.326 40.2451 120.588 40.3102 120.982 40.3102H124.265C124.802 40.3102 125.189 40.1959 125.425 39.9679C125.661 39.7394 125.779 39.3579 125.779 38.8229C125.779 38.2879 125.664 37.9061 125.434 37.6781C125.205 37.4496 124.841 37.3353 124.343 37.3353H119.999ZM119.999 32.8143V34.791H124.245C124.73 34.791 125.077 34.6834 125.287 34.4681C125.497 34.2529 125.602 33.8777 125.602 33.3427C125.602 32.8469 125.494 32.4882 125.277 32.2662C125.061 32.0446 124.711 31.9336 124.225 31.9336H120.883C120.543 31.9336 120.31 31.9955 120.185 32.1194C120.061 32.2433 119.999 32.4751 119.999 32.8143ZM127.135 36.0239C127.974 36.1414 128.56 36.4611 128.895 36.9831C129.229 37.505 129.396 38.2357 129.396 39.1753C129.396 40.4408 129.147 41.3899 128.649 42.023C128.151 42.6556 127.247 42.972 125.936 42.972H118.544C117.154 42.972 116.46 42.2739 116.46 40.8779V31.3854C116.46 29.9764 117.154 29.2717 118.544 29.2717H125.739C126.919 29.2717 127.781 29.5785 128.325 30.1915C128.869 30.8047 129.14 31.7639 129.14 33.0685C129.14 34.7649 128.472 35.7239 127.135 35.9459V36.0239ZM129.789 42.972L134.921 30.72C135.156 30.146 135.467 29.735 135.854 29.4869C136.241 29.2392 136.834 29.1152 137.634 29.1152C138.315 29.1152 138.869 29.2262 139.295 29.4478C139.721 29.6698 140.065 30.0938 140.327 30.72L145.478 42.972H141.762L140.523 39.8405H134.724L133.485 42.972H129.789ZM137.339 32.8337L135.589 37.1788H139.658L137.909 32.8337C137.804 32.5468 137.712 32.4033 137.634 32.4033C137.542 32.4033 137.443 32.5468 137.339 32.8337ZM145.674 42.972L150.963 30.4657C151.343 29.5653 152.188 29.1152 153.499 29.1152C154.81 29.1152 155.655 29.5653 156.035 30.4657L161.324 42.972H157.588L153.755 32.9708C153.755 32.9579 153.741 32.9219 153.715 32.8631C153.689 32.8044 153.669 32.762 153.656 32.7359C153.643 32.7098 153.623 32.6837 153.597 32.6576C153.571 32.6318 153.538 32.6186 153.499 32.6186C153.42 32.6186 153.328 32.7359 153.224 32.9708L149.41 42.972H145.674ZM176.186 42.972H171.842L166.808 37.7074C166.415 37.2896 166.219 36.7025 166.219 35.9459C166.219 35.3587 166.402 34.8496 166.769 34.4193L171.232 29.2717H175.479L170.112 34.9084C169.758 35.2607 169.581 35.6001 169.581 35.9263C169.581 36.2395 169.81 36.6242 170.269 37.0808L176.186 42.972ZM162.012 42.972V29.2717H165.55V42.972H162.012ZM176.186 42.972L181.318 30.72C181.554 30.146 181.865 29.735 182.252 29.4869C182.638 29.2392 183.231 29.1152 184.031 29.1152C184.712 29.1152 185.266 29.2262 185.692 29.4478C186.118 29.6698 186.462 30.0938 186.724 30.72L191.875 42.972H188.159L186.921 39.8405H181.121L179.883 42.972H176.186ZM183.736 32.8337L181.986 37.1788H186.056L184.306 32.8337C184.201 32.5468 184.109 32.4033 184.031 32.4033C183.939 32.4033 183.841 32.5468 183.736 32.8337Z" fill="#F1892B"/>
</g>
<defs>
<clipPath id="clip0_3_259">
<rect width="192" height="50" fill="white"/>
</clipPath>
</defs>
</svg>
