<?xml version="1.0" encoding="UTF-8" standalone="no" ?>
<!DOCTYPE svg PUBLIC "-//W3C//DTD SVG 1.1//EN" "http://www.w3.org/Graphics/SVG/1.1/DTD/svg11.dtd">
<svg xmlns="http://www.w3.org/2000/svg" xmlns:xlink="http://www.w3.org/1999/xlink" version="1.1" width="512" height="512" viewBox="0 0 512 512" xml:space="preserve">
<desc>Created with Fabric.js 5.3.0</desc>
<defs>
</defs>
<g transform="matrix(28.4442247965 0 0 28.4442245099 256 256)" id="eC1A3VkvFHNpTAA6sTLq3" clip-path="url(#CLIPPATH_5)"  >
<clipPath id="CLIPPATH_5" >
	<rect id="clip0_0_606" x="-9" y="-8" rx="0" ry="0" width="18" height="16" />
</clipPath>
<path style="stroke: none; stroke-width: 1; stroke-dasharray: none; stroke-linecap: butt; stroke-dashoffset: 0; stroke-linejoin: miter; stroke-miterlimit: 4; fill: rgb(241,137,43); fill-rule: evenodd; opacity: 1;"  transform=" translate(-9.0001305015, -8.0000000379)" d="M 13.5788 6.92742 C 11.3418 6.92742 9.10462 6.92742 6.86759 6.92742 L 8.99897 3.20646 L 10.6604 6.10736 L 13.1089 6.10736 L 9.91636 0.533227 C 9.62295 0.0225213 8.97413 -0.151714 8.46742 0.144071 C 8.29705 0.243638 8.16447 0.383834 8.07452 0.545256 L 3.80555 7.99846 C 4.92419 9.95131 6.04247 11.9045 7.16111 13.8574 L 2.89831 13.8574 L 4.55987 10.9565 L 3.33581 8.81864 L 0.143032 14.3931 C -0.15046 14.9038 0.022364 15.5577 0.529069 15.8536 C 0.696664 15.9513 0.879696 15.9999 1.06042 15.9998 L 9.60971 16 C 10.7314 14.0417 11.8502 12.0882 12.9682 10.1363 L 15.0995 13.8574 L 11.7764 13.8574 L 10.5493 16 L 16.9375 16 C 17.5242 16 18.0002 15.5204 18.0002 14.9287 C 18.0002 14.7066 17.9331 14.5005 17.8183 14.3293 L 13.5788 6.92742 Z" stroke-linecap="round" />
</g>
</svg>