<svg width="50" height="50" viewBox="0 0 50 50" xmlns="http://www.w3.org/2000/svg">
<rect width="50" height="50" rx="25" fill="#F9F7F4"/>
<path d="M21.0586 38.3551L33.248 26.062C33.5144 25.7402 33.7143 25.354 33.7143 24.9678C33.7143 24.5816 33.5144 24.1955 33.248 23.938L21.0586 11.6449C20.4591 11.0013 19.3933 11.0013 18.7939 11.5805C18.1278 12.1598 18.1278 13.1252 18.7273 13.7688L29.9175 25.0322L18.7273 36.2312C18.1278 36.8104 18.1278 37.8402 18.7939 38.4195C19.3933 38.9987 20.4591 38.9987 21.0586 38.3551Z"/>
<path fill-rule="evenodd" clip-rule="evenodd" d="M20.0721 37.6151C19.9768 37.7174 19.8167 37.7122 19.736 37.6342L19.7129 37.612L19.6886 37.5908C19.6325 37.542 19.5744 37.4451 19.5715 37.3039C19.5685 37.1588 19.6257 37.0586 19.6694 37.0164L19.6846 37.0016L31.6423 25.0344L19.7044 13.0185C19.6131 12.9155 19.569 12.7896 19.5715 12.6724C19.5739 12.5555 19.6205 12.4684 19.6886 12.4092L19.7129 12.388L19.736 12.3658C19.8167 12.2878 19.9768 12.2826 20.0721 12.3849L20.0849 12.3986L32.3057 24.7234C32.3339 24.7507 32.3699 24.7967 32.3966 24.8534C32.4231 24.9098 32.4286 24.9506 32.4286 24.9678C32.4286 25.0096 32.3975 25.1429 32.2449 25.3379L20.0849 37.6014L20.0721 37.6151ZM22.0304 39.1107C20.9318 40.2719 18.9924 40.2804 17.8752 39.227C16.7208 38.1995 16.7296 36.4755 17.7764 35.4545L28.1928 25.03L17.754 14.523L17.7408 14.5088C16.767 13.4634 16.6951 11.8217 17.8754 10.7728C18.9927 9.71959 20.9318 9.72817 22.0304 10.8893L34.2008 23.1632C34.6503 23.6025 35 24.2556 35 24.9678C35 25.6959 34.6353 26.321 34.28 26.7501L34.2462 26.791L22.0304 39.1107Z" />
</svg>
