<svg width="25" height="24" viewBox="0 0 25 24" xmlns="http://www.w3.org/2000/svg">
<path fill-rule="evenodd" clip-rule="evenodd" d="M6.57125 4.00254C6.39365 4.00216 6.22244 4.02226 6.05976 4.06048C5.83674 3.56893 5.54216 3.12794 5.20711 2.79289C4.63843 2.22422 3.74155 2 2.5 2V4C3.25845 4 3.6949 4.10911 3.79289 4.20711C4.17086 4.58508 4.5 5.35306 4.5 6L4.51005 6.14142L5.48992 13.0005C3.85036 13.0856 2.5802 14.3588 2.50123 15.9504L2.5 17C2.59682 18.6439 3.86275 19.9085 5.44324 19.9984L5.67026 19.9987C6.08174 21.1646 7.19331 22 8.5 22C9.80622 22 10.9175 21.1652 11.3293 20H13.6707C14.0825 21.1652 15.1938 22 16.5 22C18.1569 22 19.5 20.6569 19.5 19C19.5 17.3431 18.1569 16 16.5 16C15.1938 16 14.0825 16.8348 13.6707 18H11.3293C10.9175 16.8348 9.80622 16 8.5 16C7.19378 16 6.08254 16.8348 5.67071 18H5.5C4.99001 17.9694 4.53254 17.5124 4.49821 16.9401L4.5 16C4.52697 15.4813 4.98131 15.027 5.54955 14.9988L7.52369 14.9993L7.538 15H17.6169L17.7645 14.9532C18.5227 14.7126 19.1296 14.1416 19.417 13.4025L19.5224 13.194L19.8647 12.5159C20.2188 11.8139 20.5729 11.1108 20.918 10.4238C21.7632 8.74107 22.2948 7.67166 22.4125 7.40906C23.0171 6.06045 21.7924 5.02246 20.5407 5.00036L6.57125 4.00254ZM17.2694 13H7.61287C7.54866 12.9822 7.49973 12.9278 7.49015 12.86L6.51026 6.00073L20.3934 6.99493C20.1505 7.49032 19.7089 8.37516 19.1308 9.52609L19.1163 9.55493C18.7863 10.2119 18.4326 10.9141 18.079 11.6151L17.7371 12.2923L17.6076 12.5488L17.5588 12.6622C17.5065 12.8078 17.4028 12.9274 17.2694 13ZM16.5 20C17.0523 20 17.5 19.5523 17.5 19C17.5 18.4477 17.0523 18 16.5 18C15.9477 18 15.5 18.4477 15.5 19C15.5 19.5523 15.9477 20 16.5 20ZM9.5 19C9.5 19.5523 9.05228 20 8.5 20C7.94772 20 7.5 19.5523 7.5 19C7.5 18.4477 7.94772 18 8.5 18C9.05228 18 9.5 18.4477 9.5 19Z"/>
</svg>
