<svg width="24" height="24" viewBox="0 0 24 24" xmlns="http://www.w3.org/2000/svg">
<path fill-rule="evenodd" clip-rule="evenodd" d="M10.9745 6.25431C11.5605 6.90384 11.3747 7.63969 10.8566 8.3379C10.7337 8.50344 10.5921 8.66654 10.4211 8.84627C10.3391 8.93254 10.2751 8.99742 10.1412 9.13142L9.37441 9.89862C9.27396 9.99906 9.95978 11.3695 11.2908 12.7018C12.621 14.0334 13.9914 14.7197 14.0924 14.6187L14.8586 13.8521C15.2806 13.4297 15.504 13.2259 15.8111 13.0244C16.4495 12.6056 17.1457 12.4918 17.733 13.0169C19.6504 14.3885 20.7354 15.2301 21.267 15.7824C22.3038 16.8597 22.1679 18.518 21.2729 19.464C20.9625 19.792 20.569 20.1858 20.1042 20.6338C17.2926 23.4469 11.359 21.735 6.81145 17.183C2.26291 12.63 0.551877 6.69577 3.35753 3.88861C3.86122 3.377 4.0273 3.21101 4.51785 2.72765C5.43118 1.82771 7.16595 1.6868 8.22051 2.72854C8.77521 3.27649 9.65955 4.41433 10.9745 6.25431ZM16.2722 15.2661L15.5058 16.0329C14.2031 17.3364 11.9845 16.2253 9.87703 14.1157C7.76808 12.0047 6.65827 9.787 7.96142 8.48396L8.72744 7.71751C8.85002 7.59481 8.90609 7.53798 8.97339 7.46724C9.06509 7.37087 9.14044 7.28623 9.20077 7.21133C8.0354 5.58799 7.2432 4.57364 6.81614 4.15176C6.59558 3.93389 6.10172 3.97401 5.92042 4.15265C5.43686 4.62912 5.27792 4.78798 4.77626 5.29748C2.97194 7.10279 4.35321 11.8933 8.22519 15.7691C12.096 19.6437 16.8858 21.0256 18.7038 19.2068C19.1614 18.7655 19.5342 18.3924 19.8212 18.089C20.0286 17.8699 20.0657 17.4176 19.8271 17.1697C19.4298 16.7568 18.457 15.9984 16.7774 14.7922C16.6549 14.8907 16.5044 15.0337 16.2722 15.2661ZM20 10.9999V8.99993H16.4142L21.7071 3.70703L20.2929 2.29282L15 7.58571V3.99993H13V10.9999H20Z"/>
</svg>
