<svg width="30" height="30" viewBox="0 0 30 30" xmlns="http://www.w3.org/2000/svg">
<path fill-rule="evenodd" clip-rule="evenodd" d="M12.7427 22.4854C7.36196 22.4854 3 18.1234 3 12.7427C3 7.36196 7.36196 3 12.7427 3C18.1234 3 22.4854 7.36196 22.4854 12.7427C22.4854 14.9941 21.7217 17.0672 20.4393 18.717L27 25.2777L25.2777 27L18.717 20.4393C17.0672 21.7217 14.9941 22.4854 12.7427 22.4854ZM20.0497 12.7426C20.0497 16.7781 16.7783 20.0496 12.7427 20.0496C8.70715 20.0496 5.43568 16.7781 5.43568 12.7426C5.43568 8.70701 8.70715 5.43555 12.7427 5.43555C16.7783 5.43555 20.0497 8.70701 20.0497 12.7426Z"/>
</svg>
