<svg width="30" height="30" viewBox="0 0 30 30" xmlns="http://www.w3.org/2000/svg">
<g clip-path="url(#clip0_14_598)">
<path d="M9.0001 0.600098H0.600098V9.0001H9.0001V0.600098ZM7.8001 7.8001H1.8001V1.8001H7.8001V7.8001Z" />
<path d="M19.2 0.600098H10.8V9.0001H19.2V0.600098ZM18 7.8001H12V1.8001H18V7.8001Z" />
<path d="M21 9.0001H29.4V0.600098H21V9.0001ZM22.2 1.8001H28.2V7.8001H22.2V1.8001Z" />
<path d="M9.0001 10.8H0.600098V19.2H9.0001V10.8ZM7.8001 18H1.8001V12H7.8001V18Z" />
<path d="M10.8 19.2H19.2V10.8H10.8V19.2ZM12 12H18V18H12V12Z" />
<path d="M21 19.2H29.4V10.8H21V19.2ZM22.2 12H28.2V18H22.2V12Z" />
<path d="M9.0001 21H0.600098V29.4H9.0001V21ZM7.8001 28.2H1.8001V22.2H7.8001V28.2Z" />
<path d="M10.8 29.4H19.2V21H10.8V29.4ZM12 22.2H18V28.2H12V22.2Z" />
<path d="M21 29.4H29.4V21H21V29.4ZM22.2 22.2H28.2V28.2H22.2V22.2Z" />
</g>
<defs>
<clipPath id="clip0_14_598">
<rect width="30" height="30"/>
</clipPath>
</defs>
</svg>
