<svg width="30" height="30" viewBox="0 0 30 30" xmlns="http://www.w3.org/2000/svg">
<g clip-path="url(#clip0_14_588)">
<path d="M4.8001 9.0001C7.1161 9.0001 9.0001 7.1161 9.0001 4.8001C9.0001 2.4841 7.1161 0.600098 4.8001 0.600098C2.4841 0.600098 0.600098 2.4841 0.600098 4.8001C0.600098 7.1161 2.4841 9.0001 4.8001 9.0001ZM4.8001 1.8001C6.4543 1.8001 7.8001 3.1459 7.8001 4.8001C7.8001 6.4543 6.4543 7.8001 4.8001 7.8001C3.1459 7.8001 1.8001 6.4543 1.8001 4.8001C1.8001 3.1459 3.1459 1.8001 4.8001 1.8001Z" />
<path d="M29.4 4.2002H10.8V5.4002H29.4V4.2002Z" />
<path d="M4.8001 19.2C7.1161 19.2 9.0001 17.316 9.0001 15C9.0001 12.684 7.1161 10.8 4.8001 10.8C2.4841 10.8 0.600098 12.684 0.600098 15C0.600098 17.316 2.4841 19.2 4.8001 19.2ZM4.8001 12C6.4543 12 7.8001 13.3458 7.8001 15C7.8001 16.6542 6.4543 18 4.8001 18C3.1459 18 1.8001 16.6542 1.8001 15C1.8001 13.3458 3.1459 12 4.8001 12Z" />
<path d="M29.4 14.4001H10.8V15.6001H29.4V14.4001Z" />
<path d="M4.8001 29.4C7.1161 29.4 9.0001 27.516 9.0001 25.2C9.0001 22.884 7.1161 21 4.8001 21C2.4841 21 0.600098 22.884 0.600098 25.2C0.600098 27.516 2.4841 29.4 4.8001 29.4ZM4.8001 22.2C6.4543 22.2 7.8001 23.5458 7.8001 25.2C7.8001 26.8542 6.4543 28.2 4.8001 28.2C3.1459 28.2 1.8001 26.8542 1.8001 25.2C1.8001 23.5458 3.1459 22.2 4.8001 22.2Z" />
<path d="M29.4 24.6001H10.8V25.8001H29.4V24.6001Z" />
</g>
<defs>
<clipPath id="clip0_14_588">
<rect width="30" height="30" />
</clipPath>
</defs>
</svg>
