<svg width="9" height="15" viewBox="0 0 9 15" fill="none" xmlns="http://www.w3.org/2000/svg">
<path d="M2.02928 14.1776L8.124 8.03098C8.25722 7.87008 8.35713 7.67699 8.35713 7.48391C8.35713 7.29082 8.25722 7.09773 8.124 6.96901L2.02928 0.822441C1.72954 0.500631 1.19667 0.500631 0.896931 0.79026C0.563886 1.07989 0.563886 1.5626 0.863626 1.88441L6.45877 7.51609L0.863626 13.1156C0.563886 13.4052 0.563886 13.9201 0.896931 14.2097C1.19667 14.4994 1.72954 14.4994 2.02928 14.1776Z" fill="#F1892B"/>
<path fill-rule="evenodd" clip-rule="evenodd" d="M1.53606 13.8076C1.4884 13.8587 1.40833 13.8561 1.36798 13.8171L1.35646 13.806L1.34431 13.7954C1.31623 13.771 1.28721 13.7225 1.28574 13.6519C1.28424 13.5794 1.31285 13.5293 1.33468 13.5082L1.34232 13.5008L7.32116 7.51719L1.35219 1.50925C1.30657 1.45777 1.2845 1.39478 1.28574 1.33621C1.28697 1.27776 1.31024 1.2342 1.34431 1.20458L1.35646 1.19401L1.36798 1.18288C1.40833 1.14389 1.4884 1.14128 1.53606 1.19245L1.54244 1.1993L7.65287 7.36172C7.66695 7.37533 7.68495 7.39836 7.69829 7.42671C7.71155 7.45491 7.71428 7.47528 7.71428 7.48391C7.71428 7.50481 7.69873 7.57146 7.62244 7.66897L1.54244 13.8007L1.53606 13.8076ZM2.51521 14.5554C1.96588 15.136 0.996176 15.1402 0.437582 14.6135C-0.139601 14.0998 -0.1352 13.2378 0.388199 12.7272L5.59641 7.51499L0.376981 2.26149L0.370401 2.25442C-0.11649 1.73168 -0.152464 0.910846 0.437714 0.386379C0.996329 -0.140206 1.96592 -0.135916 2.51521 0.44464L8.60038 6.58159C8.82516 6.80123 9 7.12782 9 7.48391C9 7.84793 8.81766 8.16051 8.64002 8.37507L8.62311 8.3955L2.51521 14.5554Z" fill="#F1892B"/>
</svg>
