<svg width="44" height="32" viewBox="0 0 44 32" fill="none" xmlns="http://www.w3.org/2000/svg">
<path d="M43.0815 4.93567C42.5588 3.00465 41.1119 1.49018 39.2482 0.954819C35.8165 4.56466e-05 22.021 4.58774e-05 22.021 4.58774e-05C22.021 4.58774e-05 8.25166 -0.0228575 4.78422 0.954819C2.93016 1.49161 1.47634 3.00465 0.959176 4.93567C0.308602 8.59587 -0.0146221 12.3005 0.000507519 16.0222C-0.00636959 19.7196 0.315479 23.4185 0.959176 27.0558C1.47634 28.9868 2.93016 30.5013 4.78422 31.0452C8.2159 32 22.021 32 22.021 32C22.021 32 35.7821 32 39.2482 31.0452C41.1119 30.5013 42.5588 28.9882 43.0815 27.0558C43.7128 23.4185 44.0209 19.7196 43.9989 16.0222C44.0209 12.3005 43.7197 8.59587 43.0815 4.93567ZM17.6142 22.8745V9.13982L29.0976 16.0222L17.6142 22.8745Z" fill="#7C7A79"/>
</svg>
