<svg width="60" height="60" viewBox="0 0 60 60" fill="none" xmlns="http://www.w3.org/2000/svg">
<rect width="60" height="60" rx="30" fill="#F1892B"/>
<path fill-rule="evenodd" clip-rule="evenodd" d="M17.5 27.5C17.5 33.0228 21.9772 37.5 27.5 37.5C29.8109 37.5 31.9387 36.7161 33.6321 35.3998L40.3661 42.1339L42.1339 40.3661L35.3998 33.6321C36.7161 31.9387 37.5 29.8109 37.5 27.5C37.5 21.9772 33.0228 17.5 27.5 17.5C21.9772 17.5 17.5 21.9772 17.5 27.5ZM27.5 35C31.6421 35 35 31.6421 35 27.5C35 23.3579 31.6421 20 27.5 20C23.3579 20 20 23.3579 20 27.5C20 31.6421 23.3579 35 27.5 35ZM26.25 22.5V26.25H22.5V28.75H26.25V32.5H28.75V28.75H32.5V26.25H28.75V22.5H26.25Z" fill="white"/>
</svg>
