<svg width="140" height="140" fill="none" xmlns="http://www.w3.org/2000/svg"><g clip-path="url(#a)" fill="#F1892B"><path d="M51.142 71.402a2.448 2.448 0 0 1-3.864 0L31.424 51.255c-1.26-1.602-.115-3.978 1.946-3.978h6.239V18.26a1.6 1.6 0 0 1 1.602-1.603h16.026a1.6 1.6 0 0 1 1.603 1.603v29.018h6.239c2.06 0 3.205 2.376 1.946 3.978L51.14 71.402Z"/><path d="M4.38 92.894V46.991a4.018 4.018 0 0 1 4.006-4.006h7.212a4.018 4.018 0 0 1 4.006 4.006v26.815a7.475 7.475 0 0 0 7.47 7.47h44.243a7.475 7.475 0 0 0 7.47-7.47V46.39a3.395 3.395 0 0 1 3.405-3.405h7.412c3.491 0 6.496 1.745 8.385 4.264.172.171.315.486.486.63l12.192 18.372 13.793 1.145a10.296 10.296 0 0 1 10.303 10.302v15.053c2.862.315 5.237 2.862 5.237 5.867v7.441c0 3.176-2.547 5.866-5.867 5.866h-7.297c-1.889 6.496-7.927 11.419-15.196 11.419-7.298 0-13.308-4.751-15.197-11.419H44.645c-1.889 6.496-7.927 11.419-15.196 11.419s-13.307-4.751-15.196-11.419H5.868c-3.177 0-5.867-2.547-5.867-5.866v-7.441c-.057-2.719 1.86-5.094 4.379-5.724Zm107.26 22.494c4.264 0 7.927-3.635 7.927-7.927 0-4.293-3.492-7.927-7.927-7.927-4.264 0-7.928 3.634-7.928 7.927 0 4.292 3.492 7.927 7.928 7.927Zm-82.22 0c4.436 0 7.927-3.635 7.927-7.927 0-4.293-3.49-7.927-7.927-7.927-4.264 0-7.927 3.634-7.927 7.927 0 4.292 3.492 7.927 7.927 7.927Z"/></g><defs><clipPath id="a"><path fill="#fff" transform="matrix(-1 0 0 1 140 0)" d="M0 0h140v140H0z"/></clipPath></defs></svg>