<svg width="140" height="140" fill="none" xmlns="http://www.w3.org/2000/svg"><path d="M24.277 14c-.239 0-.507.03-.745.067C14.3 15.669 5.04 36.418 1.966 43.93h67.557l3.545-7.21c-3.694-6.035-10.515-15.196-17.366-14.81-4.498.242-13.106 10.253-13.106 10.253S32.05 13.907 24.276 14ZM82.39 30.052l-9.531 19.31H49.12L36.995 78.026c6.553.996 12.332 4.435 16.383 9.353h26.093a26.383 26.383 0 0 1 4.886-4.616l8.519-38.832h14.566l4.855-13.879H82.391ZM0 49.362V73.5l4.042 1.056 10.664-25.194H0Zm20.526 0L9.276 75.944l7.613 2.022 12.094-28.604h-8.457Zm14.295 0L22.126 79.354l1.102.301a25.577 25.577 0 0 1 8.049-1.87L43.28 49.362h-8.46Zm62.345 0-6.583 30.022a26.642 26.642 0 0 1 9.204-1.66c12.004 0 22.222 8.177 25.439 19.31H140V72.747l-13.851-4.677-4.617-18.707H97.166Zm5.302 4.224h13.702l3.724 15.087h-21.15l3.218-13.035.506-2.052Zm-69.404 29.57c-11.712 0-21.15 9.564-21.15 21.422 0 11.857 9.438 21.422 21.15 21.422 11.706 0 21.149-9.565 21.149-21.422 0-11.858-9.443-21.423-21.15-21.423Zm66.723 0c-11.706 0-21.149 9.564-21.149 21.422 0 11.857 9.443 21.422 21.15 21.422 11.706 0 21.148-9.565 21.148-21.422 0-11.858-9.442-21.423-21.149-21.423ZM4.283 92.81.59 111.517h6.866a27.077 27.077 0 0 1-.903-6.939c0-4.224.968-8.207 2.693-11.768H4.283Zm52.61 0a27.262 27.262 0 0 1 2.681 11.768c0 2.383-.327 4.737-.893 6.939h15.49a28.026 28.026 0 0 1-.894-6.939c0-4.224.983-8.207 2.68-11.768H56.894Zm-23.83 2.112a9.47 9.47 0 0 1 6.74 2.828 9.72 9.72 0 0 1 2.793 6.828 9.72 9.72 0 0 1-2.792 6.827 9.47 9.47 0 0 1-6.74 2.828 9.47 9.47 0 0 1-6.74-2.828 9.72 9.72 0 0 1-2.792-6.827 9.72 9.72 0 0 1 2.792-6.828 9.471 9.471 0 0 1 6.74-2.828Zm66.724 0a9.47 9.47 0 0 1 6.74 2.828 9.718 9.718 0 0 1 2.792 6.828 9.718 9.718 0 0 1-2.792 6.827 9.468 9.468 0 0 1-6.74 2.828 9.47 9.47 0 0 1-6.74-2.828 9.72 9.72 0 0 1-2.792-6.827 9.72 9.72 0 0 1 2.792-6.828 9.471 9.471 0 0 1 6.74-2.828Zm26.422 7.544c.059.694.089 1.388.089 2.112a27.02 27.02 0 0 1-1.609 9.202L140 107.565v-5.099h-13.791Z" fill="#F1892B"/></svg>