<svg width="300" height="78" fill="none" xmlns="http://www.w3.org/2000/svg"><g clip-path="url(#a)"><path fill-rule="evenodd" clip-rule="evenodd" d="M32.87 6.298a11.874 11.874 0 0 1 4.418-4.45C42.975-1.425 50.29.513 53.578 6.172L84.875 60.05a11.782 11.782 0 0 1 1.857 6.352c0 6.544-5.343 11.855-11.926 11.855l-63.09-.001a11.97 11.97 0 0 1-5.972-1.604C.062 73.38-1.882 66.126 1.399 60.475l31.47-54.177Zm26.163 41.327 8.47 14.58H54.297L49.422 70.6h25.385c2.331 0 4.223-1.88 4.223-4.198 0-.87-.267-1.677-.723-2.348L61.46 35.052H34.792l8.47-14.579 6.601 11.366h9.73L46.905 10a4.227 4.227 0 0 0-7.319.047L22.624 39.25c4.446 7.651 8.889 15.304 13.334 22.956H19.019l6.603-11.366-4.864-8.377L8.07 64.304a4.174 4.174 0 0 0 1.534 5.722 4.227 4.227 0 0 0 2.111.573h33.972l13.345-22.974Z" fill="#F1892B"/><path d="m123.446 21.212-6.01 16.675c-.472 1.3-1.029 2.24-1.669 2.82-.64.581-1.711.871-3.214.871-1.529 0-2.615-.29-3.255-.871-.639-.58-1.196-1.52-1.669-2.82l-5.967-16.675c-.251-.663-.459-.995-.626-.995-.278 0-.418.304-.418.913l.209 20.116h-7.512V16.36c0-.912.195-1.686.585-2.323a3.448 3.448 0 0 1 1.564-1.389 8.41 8.41 0 0 1 1.878-.601c.599-.11 1.232-.166 1.9-.166 3.199 0 5.313 1.424 6.343 4.272l6.134 16.757c.278.802.556 1.203.834 1.203.279 0 .557-.4.835-1.203l6.135-16.757c1.029-2.848 3.13-4.272 6.301-4.272 3.979 0 5.968 1.493 5.968 4.48v24.886h-7.511l.25-20.117c0-.608-.153-.912-.459-.912-.167 0-.376.332-.626.995Zm20.323-8.71c1.864-.415 4.298-.622 7.303-.622s5.439.207 7.303.622c1.864.414 3.443 1.175 4.737 2.281s2.198 2.613 2.712 4.521c.515 1.909.773 4.383.773 7.425 0 3.041-.258 5.517-.773 7.425-.514 1.908-1.418 3.421-2.712 4.542-1.294 1.12-2.873 1.88-4.737 2.281-1.864.4-4.298.601-7.303.601s-5.439-.2-7.303-.601c-1.864-.401-3.443-1.161-4.736-2.281-1.294-1.12-2.198-2.634-2.713-4.542-.515-1.908-.772-4.384-.772-7.425 0-3.042.257-5.517.772-7.425.515-1.908 1.419-3.415 2.713-4.521 1.293-1.106 2.872-1.867 4.736-2.281Zm1.106 7.113c-1.099 1.286-1.648 3.658-1.648 7.114 0 3.457.549 5.828 1.648 7.114 1.099 1.285 3.165 1.928 6.197 1.928 3.033 0 5.098-.642 6.198-1.928 1.098-1.286 1.648-3.658 1.648-7.114s-.55-5.828-1.648-7.114c-1.1-1.286-3.165-1.929-6.198-1.929-3.032 0-5.098.643-6.197 1.93Zm53.313-7.404v29.035h-7.512V29.135h-12.812v12.111h-7.511V12.211h7.511v11.117h12.812V12.21h7.512Zm34.387 29.035h-7.595l.334-19.536c0-.691-.139-1.037-.418-1.037a.453.453 0 0 0-.146.021.277.277 0 0 0-.125.103 1.475 1.475 0 0 1-.125.146.982.982 0 0 0-.146.207c-.056.097-.105.18-.147.249l-.187.311a8.46 8.46 0 0 1-.209.332l-10.183 16.716c-.333.553-.667 1.002-1.001 1.348-.334.346-.89.678-1.67.996-.778.318-1.71.476-2.795.476-1.169 0-2.143-.18-2.922-.539-.779-.36-1.328-.864-1.648-1.514-.32-.65-.536-1.265-.647-1.845-.111-.581-.167-1.273-.167-2.075V12.211h7.595l-.333 19.163c0 .913.166 1.37.5 1.37a.372.372 0 0 0 .167-.042.527.527 0 0 0 .167-.145 5.42 5.42 0 0 0 .146-.187c.042-.055.104-.152.188-.29.084-.139.139-.235.167-.29l9.89-16.592c1.336-2.212 3.2-3.318 5.593-3.318 3.811 0 5.717 2.073 5.717 6.222v23.144Zm32.426-29.035v29.035h-7.512V29.135h-12.812v12.111h-7.511V12.211h7.511v11.117h12.812V12.21h7.512Zm11.977.29c1.864-.414 4.298-.621 7.303-.621 3.004 0 5.439.207 7.303.622 1.864.414 3.443 1.175 4.737 2.281s2.197 2.613 2.712 4.521c.514 1.909.772 4.383.772 7.425 0 3.041-.258 5.517-.772 7.425-.515 1.908-1.418 3.421-2.712 4.542-1.294 1.12-2.873 1.88-4.737 2.281-1.864.4-4.299.601-7.303.601-3.005 0-5.439-.2-7.303-.601-1.864-.401-3.443-1.161-4.737-2.281s-2.198-2.634-2.712-4.542c-.515-1.908-.773-4.384-.773-7.425 0-3.042.258-5.517.773-7.425.514-1.908 1.418-3.415 2.712-4.521 1.294-1.106 2.873-1.867 4.737-2.281Zm1.105 7.114c-1.098 1.286-1.648 3.658-1.648 7.114 0 3.457.55 5.828 1.648 7.114 1.1 1.285 3.165 1.928 6.198 1.928 3.032 0 5.098-.642 6.197-1.928 1.099-1.286 1.649-3.658 1.649-7.114s-.55-5.828-1.649-7.114c-1.099-1.286-3.165-1.929-6.197-1.929-3.033 0-5.098.643-6.198 1.93Z" fill="#2B2A29"/><path d="M98.844 67.036h-5.53V48.961c0-2.198 1.086-3.297 3.257-3.297h13.823c2.171 0 3.256 1.099 3.256 3.297v18.075h-5.529V51.373c0-.53-.108-.9-.323-1.114-.215-.214-.588-.32-1.121-.32h-6.389c-.532 0-.907.106-1.121.32-.215.214-.323.585-.323 1.114v15.663Zm36.217-21.372v4.152h-11.058c-.533 0-.907.107-1.122.32-.215.214-.322.586-.322 1.115v2.962h12.226v3.97h-12.226v3.266c0 .53.107.9.322 1.114.215.214.589.32 1.122.32h11.181v4.153h-14.898c-2.171 0-3.256-1.089-3.256-3.267V48.962c0-2.198 1.085-3.297 3.256-3.297h14.775Zm8.417 21.372h-5.529V48.961c0-2.198 1.085-3.297 3.256-3.297h11.427c1.168 0 2.14.168 2.918.503.779.337 1.373.846 1.782 1.527a6.97 6.97 0 0 1 .86 2.26c.164.824.246 1.806.246 2.946 0 2.381-.415 4.193-1.244 5.435-.829 1.241-2.35 1.862-4.562 1.862h-9.154v6.84Zm0-11.114h6.297c1.127 0 1.91-.228 2.351-.686.44-.458.66-1.237.66-2.336 0-1.079-.22-1.842-.66-2.29-.441-.448-1.224-.672-2.351-.672h-4.853c-.532 0-.907.107-1.121.32-.216.215-.323.586-.323 1.115v4.55Zm35.603-10.258v4.152h-11.059c-.532 0-.906.107-1.121.32-.215.214-.322.586-.322 1.115v2.962h12.226v3.97h-12.226v3.266c0 .53.107.9.322 1.114.215.214.589.32 1.121.32h11.182v4.153h-14.899c-2.17 0-3.256-1.089-3.256-3.267V48.962c0-2.198 1.086-3.297 3.256-3.297h14.776Zm8.417 12.579v3.114c0 .61.102 1.018.307 1.222.205.203.614.305 1.229.305h5.129c.84 0 1.445-.178 1.813-.534.369-.357.553-.952.553-1.786 0-.835-.179-1.43-.538-1.786-.358-.357-.926-.535-1.704-.535h-6.789Zm0-7.053v3.084h6.635c.758 0 1.3-.168 1.628-.504.328-.336.492-.92.492-1.756 0-.773-.169-1.333-.507-1.679-.338-.346-.886-.519-1.644-.519h-5.222c-.532 0-.896.097-1.09.29-.195.194-.292.555-.292 1.084Zm11.151 5.007c1.31.183 2.227.682 2.749 1.497.522.814.783 1.954.783 3.42 0 1.974-.389 3.454-1.167 4.442-.778.987-2.191 1.48-4.239 1.48h-11.551c-2.17 0-3.256-1.089-3.256-3.267V48.962c0-2.198 1.086-3.297 3.256-3.297h11.244c1.843 0 3.189.478 4.039 1.435.85.956 1.275 2.453 1.275 4.488 0 2.646-1.044 4.142-3.133 4.488v.122Zm4.147 10.84 8.017-19.114c.369-.895.855-1.537 1.459-1.924.604-.386 1.531-.58 2.78-.58 1.065 0 1.931.174 2.596.52.666.346 1.203 1.007 1.613 1.984l8.048 19.113h-5.806l-1.935-4.885h-9.062l-1.935 4.885h-5.775Zm11.796-15.816-2.735 6.778h6.359l-2.734-6.778c-.163-.448-.307-.672-.43-.672-.143 0-.297.224-.46.672Zm13.024 15.815 8.264-19.51c.593-1.404 1.914-2.106 3.962-2.106s3.369.702 3.963 2.106l8.263 19.51h-5.836l-5.991-15.602a.67.67 0 0 0-.061-.168 4.77 4.77 0 0 0-.092-.198.49.49 0 0 0-.092-.122.21.21 0 0 0-.154-.061c-.123 0-.266.183-.43.55l-5.96 15.601h-5.836Zm47.675 0h-6.789l-7.864-8.213c-.614-.651-.921-1.567-.921-2.748 0-.916.287-1.71.86-2.38l6.973-8.031h6.635l-8.386 8.793c-.553.55-.829 1.08-.829 1.588 0 .488.358 1.089 1.075 1.8l9.246 9.191Zm-22.148 0V45.664h5.53v21.372h-5.53Zm22.148 0 8.018-19.113c.369-.895.855-1.537 1.459-1.924.604-.386 1.531-.58 2.78-.58 1.065 0 1.93.174 2.596.52.666.346 1.203 1.007 1.613 1.984l8.048 19.113h-5.806l-1.935-4.885h-9.062l-1.936 4.885h-5.775Zm11.796-15.815-2.734 6.778h6.359l-2.734-6.778c-.163-.448-.307-.672-.43-.672-.143 0-.297.224-.461.672Z" fill="#F1892B"/></g><defs><clipPath id="a"><path fill="#fff" d="M0 0h300v78H0z"/></clipPath></defs></svg>