<svg width="192" height="50" fill="none" xmlns="http://www.w3.org/2000/svg"><g clip-path="url(#a)"><path fill-rule="evenodd" clip-rule="evenodd" d="M21.037 4.037a7.606 7.606 0 0 1 2.827-2.852c3.64-2.099 8.322-.857 10.426 2.77l20.03 34.539a7.562 7.562 0 0 1 1.189 4.072c0 4.194-3.42 7.599-7.633 7.599l-40.378-.001a7.653 7.653 0 0 1-3.822-1.028c-3.636-2.097-4.88-6.748-2.78-10.37l20.14-34.729ZM37.78 30.53l5.42 9.346h-8.45l-3.121 5.381h16.246a2.697 2.697 0 0 0 2.702-2.69 2.67 2.67 0 0 0-.462-1.506L39.334 22.47H22.267l5.42-9.346 4.225 7.286h6.227l-8.119-14a2.703 2.703 0 0 0-4.684.03L14.48 25.16c2.845 4.904 5.688 9.81 8.533 14.715h-10.84l4.225-7.286-3.113-5.37-8.12 14.001a2.678 2.678 0 0 0 .982 3.669 2.71 2.71 0 0 0 1.351.367H29.24l8.541-14.727Z" fill="#F1892B"/><path d="M79.005 13.598 75.16 24.286c-.302.833-.658 1.436-1.068 1.808-.41.373-1.095.559-2.056.559-.98 0-1.674-.186-2.084-.559-.41-.372-.765-.975-1.068-1.808l-3.82-10.688c-.16-.426-.293-.638-.4-.638-.178 0-.267.195-.267.585l.134 12.895h-4.808V10.487c0-.585.125-1.081.374-1.49.25-.407.583-.704 1.001-.89a5.379 5.379 0 0 1 1.202-.385 6.68 6.68 0 0 1 1.216-.107c2.047 0 3.4.913 4.06 2.739L71.5 21.096c.178.514.356.77.534.77.179 0 .357-.256.535-.77l3.926-10.742c.659-1.826 2.003-2.739 4.033-2.739 2.546 0 3.82.958 3.82 2.872V26.44H79.54l.16-12.895c0-.39-.098-.585-.294-.585-.107 0-.24.212-.4.638Zm13.008-5.584c1.193-.266 2.75-.399 4.673-.399s3.481.133 4.674.4c1.193.265 2.204.752 3.032 1.461.828.71 1.406 1.675 1.736 2.898.329 1.224.494 2.81.494 4.76 0 1.95-.165 3.536-.494 4.76-.33 1.223-.908 2.193-1.736 2.91-.828.719-1.839 1.206-3.032 1.463-1.193.257-2.75.386-4.674.386-1.923 0-3.48-.129-4.673-.386-1.194-.257-2.204-.744-3.032-1.462-.828-.718-1.407-1.688-1.736-2.912-.33-1.223-.494-2.81-.494-4.759 0-1.95.164-3.536.494-4.76.33-1.223.908-2.189 1.736-2.898.828-.709 1.839-1.196 3.032-1.462Zm.707 4.56c-.703.824-1.055 2.344-1.055 4.56 0 2.216.352 3.736 1.055 4.56.704.824 2.026 1.236 3.966 1.236 1.941 0 3.263-.412 3.967-1.236.703-.824 1.055-2.344 1.055-4.56 0-2.216-.352-3.736-1.055-4.56-.704-.824-2.026-1.236-3.967-1.236-1.94 0-3.263.412-3.966 1.236Zm34.121-4.746V26.44h-4.808v-7.764h-8.2v7.764h-4.807V7.828h4.807v7.126h8.2V7.828h4.808Zm22.007 18.612h-4.861l.214-12.523c0-.443-.089-.665-.267-.665a.293.293 0 0 0-.094.013.178.178 0 0 0-.08.067.867.867 0 0 1-.08.093.62.62 0 0 0-.093.133l-.094.16-.12.199c-.054.088-.098.16-.134.212l-6.517 10.716a4.816 4.816 0 0 1-.641.864c-.213.221-.569.434-1.068.638-.498.204-1.095.306-1.789.306-.748 0-1.372-.115-1.87-.346-.498-.23-.85-.554-1.055-.97a4.694 4.694 0 0 1-.414-1.183 7.195 7.195 0 0 1-.107-1.33V7.828h4.861l-.213 12.284c0 .585.106.877.32.877a.24.24 0 0 0 .107-.026.346.346 0 0 0 .107-.093l.093-.12c.027-.035.067-.097.12-.186.054-.089.089-.15.107-.186l6.33-10.636c.855-1.418 2.048-2.127 3.579-2.127 2.439 0 3.659 1.33 3.659 3.989V26.44Zm20.753-18.612V26.44h-4.808v-7.764h-8.199v7.764h-4.808V7.828h4.808v7.126h8.199V7.828h4.808Zm7.665.186c1.193-.266 2.751-.399 4.674-.399 1.923 0 3.481.133 4.674.4 1.193.265 2.203.752 3.031 1.461.829.71 1.407 1.675 1.736 2.898.33 1.224.495 2.81.495 4.76 0 1.95-.165 3.536-.495 4.76-.329 1.223-.907 2.193-1.736 2.91-.828.719-1.838 1.206-3.031 1.463-1.193.257-2.751.386-4.674.386-1.923 0-3.481-.129-4.674-.386-1.193-.257-2.203-.744-3.031-1.462-.829-.718-1.407-1.688-1.736-2.912-.33-1.223-.495-2.81-.495-4.759 0-1.95.165-3.536.495-4.76.329-1.223.907-2.189 1.736-2.898.828-.709 1.838-1.196 3.031-1.462Zm.708 4.56c-.704.824-1.055 2.344-1.055 4.56 0 2.216.351 3.736 1.055 4.56.703.824 2.025 1.236 3.966 1.236 1.941 0 3.263-.412 3.966-1.236.704-.824 1.055-2.344 1.055-4.56 0-2.216-.351-3.736-1.055-4.56-.703-.824-2.025-1.236-3.966-1.236-1.941 0-3.263.412-3.966 1.236Z" fill="#fff"/><path d="M63.26 42.972h-3.539V31.385c0-1.409.695-2.113 2.084-2.113h8.847c1.39 0 2.084.704 2.084 2.113v11.587h-3.538v-10.04c0-.34-.07-.578-.207-.715-.138-.137-.377-.205-.717-.205h-4.09c-.34 0-.58.068-.717.205-.138.137-.207.375-.207.715v10.04Zm23.18-13.7v2.662h-7.078c-.341 0-.58.068-.718.205-.138.137-.206.375-.206.714v1.899h7.824v2.544h-7.824v2.094c0 .34.068.578.206.715.138.137.377.205.718.205h7.156v2.662h-9.535c-1.39 0-2.084-.698-2.084-2.094v-9.493c0-1.409.694-2.113 2.084-2.113h9.456Zm5.386 13.7h-3.539V31.385c0-1.409.695-2.113 2.084-2.113h7.314c.747 0 1.37.108 1.867.323.498.215.878.541 1.141.978.262.437.445.92.55 1.449.105.528.157 1.157.157 1.888 0 1.527-.265 2.688-.796 3.484-.531.796-1.504 1.194-2.92 1.194h-5.858v4.384Zm0-7.124h4.03c.721 0 1.222-.147 1.504-.44.282-.294.423-.793.423-1.498 0-.691-.14-1.18-.423-1.468-.282-.287-.783-.43-1.504-.43H92.75c-.34 0-.58.068-.718.205-.137.137-.206.375-.206.715v2.916Zm22.786-6.576v2.662h-7.078c-.34 0-.58.068-.717.205-.138.137-.207.375-.207.714v1.899h7.825v2.544h-7.825v2.094c0 .34.069.578.207.715.137.137.377.205.717.205h7.157v2.662h-9.536c-1.389 0-2.083-.698-2.083-2.094v-9.493c0-1.409.694-2.113 2.083-2.113h9.457Zm5.387 8.063v1.997c0 .391.065.652.196.783.131.13.393.195.787.195h3.283c.537 0 .924-.114 1.16-.342.236-.229.354-.61.354-1.145s-.115-.917-.345-1.145c-.229-.228-.593-.343-1.091-.343h-4.344Zm0-4.52v1.976h4.246c.485 0 .832-.108 1.042-.323.21-.215.315-.59.315-1.125 0-.496-.108-.855-.325-1.077-.216-.221-.566-.332-1.052-.332h-3.342c-.34 0-.573.061-.698.185-.124.124-.186.356-.186.695Zm7.136 3.209c.839.117 1.425.437 1.76.96.334.521.501 1.252.501 2.191 0 1.266-.249 2.215-.747 2.848s-1.402.949-2.713.949h-7.392c-1.39 0-2.084-.698-2.084-2.094v-9.493c0-1.409.694-2.113 2.084-2.113h7.195c1.18 0 2.042.306 2.586.92.544.613.815 1.572.815 2.877 0 1.696-.668 2.655-2.005 2.877v.078Zm2.654 6.948 5.132-12.252c.235-.574.546-.985.933-1.233.387-.248.98-.372 1.78-.372.681 0 1.235.111 1.661.333.426.222.77.646 1.032 1.272l5.151 12.252h-3.716l-1.239-3.132h-5.799l-1.239 3.132h-3.696Zm7.55-10.138-1.75 4.345h4.069l-1.749-4.345c-.105-.287-.197-.43-.275-.43-.092 0-.191.143-.295.43Zm8.335 10.138 5.289-12.506c.38-.9 1.225-1.35 2.536-1.35s2.156.45 2.536 1.35l5.289 12.506h-3.736l-3.833-10.001a.466.466 0 0 0-.04-.108 3.287 3.287 0 0 0-.059-.127.31.31 0 0 0-.059-.078.134.134 0 0 0-.098-.04c-.079 0-.171.118-.275.353l-3.814 10.001h-3.736Zm30.512 0h-4.344l-5.034-5.265c-.393-.417-.589-1.005-.589-1.761 0-.587.183-1.096.55-1.527l4.463-5.147h4.247l-5.367 5.636c-.354.353-.531.692-.531 1.018 0 .313.229.698.688 1.155l5.917 5.891Zm-14.174 0v-13.7h3.538v13.7h-3.538Zm14.174 0 5.132-12.252c.236-.574.547-.985.934-1.233.386-.248.979-.372 1.779-.372.681 0 1.235.111 1.661.333.426.222.77.646 1.032 1.272l5.151 12.252h-3.716l-1.238-3.132h-5.8l-1.238 3.132h-3.697Zm7.55-10.138-1.75 4.345h4.07l-1.75-4.345c-.105-.287-.197-.43-.275-.43-.092 0-.19.143-.295.43Z" fill="#F1892B"/></g><defs><clipPath id="a"><path fill="#fff" d="M0 0h192v50H0z"/></clipPath></defs></svg>